<?xml version="1.0" encoding="UTF-8" standalone="no"?>
<svg
   xmlns:dc="http://purl.org/dc/elements/1.1/"
   xmlns:cc="http://creativecommons.org/ns#"
   xmlns:rdf="http://www.w3.org/1999/02/22-rdf-syntax-ns#"
   xmlns:svg="http://www.w3.org/2000/svg"
   xmlns="http://www.w3.org/2000/svg"
   xmlns:sodipodi="http://sodipodi.sourceforge.net/DTD/sodipodi-0.dtd"
   xmlns:inkscape="http://www.inkscape.org/namespaces/inkscape"
   width="269.64499mm"
   height="140.577mm"
   viewBox="0 0 269.64499 140.577"
   version="1.1"
   id="svg8"
   inkscape:version="1.0.2 (e86c8708, 2021-01-15)"
   sodipodi:docname="nanokontrol-channels-1-4-inkscape.svg">
  <defs
     id="defs2">
    <clipPath
       clipPathUnits="userSpaceOnUse"
       id="clipPath867">
      <path
         d="M 41.571,58.848 H 796.54 V 549.921 H 41.571 Z"
         id="path865" />
    </clipPath>
    <clipPath
       clipPathUnits="userSpaceOnUse"
       id="clipPath29469">
      <path
         d="M 41.571,58.848 H 796.54 V 549.921 H 41.571 Z"
         id="path29467" />
    </clipPath>
  </defs>
  <sodipodi:namedview
     id="base"
     pagecolor="#ffffff"
     bordercolor="#666666"
     borderopacity="1.0"
     inkscape:pageopacity="0.0"
     inkscape:pageshadow="2"
     inkscape:zoom="2"
     inkscape:cx="418.79593"
     inkscape:cy="319.69877"
     inkscape:document-units="mm"
     inkscape:current-layer="layer1"
     inkscape:document-rotation="0"
     showgrid="false"
     inkscape:window-width="1680"
     inkscape:window-height="1005"
     inkscape:window-x="0"
     inkscape:window-y="23"
     inkscape:window-maximized="0"
     showguides="true"
     inkscape:guide-bbox="true"
     inkscape:snap-nodes="false"
     inkscape:snap-global="false"
     showborder="false"
     inkscape:lockguides="true">
    <inkscape:grid
       type="xygrid"
       id="grid2970" />
  </sodipodi:namedview>
  <metadata
     id="metadata5">
    <rdf:RDF>
      <cc:Work
         rdf:about="">
        <dc:format>image/svg+xml</dc:format>
        <dc:type
           rdf:resource="http://purl.org/dc/dcmitype/StillImage" />
        <dc:title></dc:title>
      </cc:Work>
    </rdf:RDF>
  </metadata>
  <g
     inkscape:label="nanoKONTROL Studio"
     id="layer1"
     sodipodi:insensitive="true"
     transform="translate(-12.507982,-42.143694)">
    <path
       d="M 88.485925,182.62069 V 42.384434 l 46.915925,-0.14074 -0.0234,140.376996 z"
       style="fill:none;fill-opacity:1;fill-rule:nonzero;stroke:#000000;stroke-width:0.2;stroke-linecap:round;stroke-linejoin:round;stroke-miterlimit:4;stroke-dasharray:none;stroke-opacity:1"
       id="path1867"
       inkscape:label="outline"
       sodipodi:nodetypes="ccccc" />
    <g
       id="g1593"
       inkscape:label="channel 2"
       style="display:inline"
       transform="translate(23.457949)">
      <g
         id="g1553"
         style="font-variation-settings:normal;display:inline;vector-effect:none;fill:none;fill-opacity:1;stroke:#000000;stroke-width:0.241388;stroke-linecap:round;stroke-linejoin:round;stroke-miterlimit:4;stroke-dasharray:none;stroke-dashoffset:0;stroke-opacity:1;stop-color:#000000"
         transform="matrix(0.82854043,0,0,-0.82854043,-80.745236,359.17549)"
         inkscape:label="channel fader 1">
        <path
           style="font-variation-settings:normal;display:inline;vector-effect:none;fill:none;fill-opacity:1;stroke:#000000;stroke-width:0.241388;stroke-linecap:round;stroke-linejoin:round;stroke-miterlimit:4;stroke-dasharray:none;stroke-dashoffset:0;stroke-opacity:1;stop-color:#000000"
           d="m 219.4695,217.4936 0.226,0.068 0.207,0.111 0.183,0.152 0.15,0.182 0.111,0.207 0.07,0.227 0.023,0.24339 c 7e-5,20.87717 5e-5,41.75435 5e-5,62.63152 l -0.023,0.24239 -0.07,0.226 -0.111,0.21 -0.15,0.183 -0.183,0.149 -0.207,0.111 -0.226,0.068 -0.83865,0.009 -0.83665,-0.009 -0.226,-0.068 -0.209,-0.111 -0.183,-0.15 -0.149,-0.182 -0.111,-0.21 -0.069,-0.226 -0.022,-0.23814 c -5e-5,-20.87966 -8e-5,-41.75932 -1e-4,-62.63898 l 0.022,-0.24038 0.069,-0.227 0.111,-0.207 0.15,-0.183 0.182,-0.151 0.209,-0.111 0.226,-0.068 0.83667,-0.009 z"
           id="path1503"
           sodipodi:nodetypes="ccccccccccccccccccccccccccccccccccc"
           inkscape:label="cut - fader groove merged" />
        <path
           d="m 228.6421,223.1329 h -7.326 7.326"
           style="font-variation-settings:normal;vector-effect:none;fill:none;fill-opacity:1;fill-rule:nonzero;stroke:#000000;stroke-width:0.241388;stroke-linecap:round;stroke-linejoin:round;stroke-miterlimit:4;stroke-dasharray:none;stroke-dashoffset:0;stroke-opacity:1;stop-color:#000000"
           id="path1505"
           inkscape:label="pen - fader level r 12"
           sodipodi:nodetypes="ccc" />
        <path
           d="m 226.3422,225.5041 h -5.026 5.026"
           style="font-variation-settings:normal;vector-effect:none;fill:none;fill-opacity:1;fill-rule:nonzero;stroke:#000000;stroke-width:0.241388;stroke-linecap:round;stroke-linejoin:round;stroke-miterlimit:4;stroke-dasharray:none;stroke-dashoffset:0;stroke-opacity:1;stop-color:#000000"
           id="path1507"
           inkscape:label="pen - fader level r 11"
           sodipodi:nodetypes="ccc" />
        <path
           d="m 226.3422,227.6145 h -5.026 5.026"
           style="font-variation-settings:normal;vector-effect:none;fill:none;fill-opacity:1;fill-rule:nonzero;stroke:#000000;stroke-width:0.241388;stroke-linecap:round;stroke-linejoin:round;stroke-miterlimit:4;stroke-dasharray:none;stroke-dashoffset:0;stroke-opacity:1;stop-color:#000000"
           id="path1509"
           inkscape:label="pen - fader level r 10"
           sodipodi:nodetypes="ccc" />
        <path
           d="m 226.3422,229.9349 h -5.026 5.026"
           style="font-variation-settings:normal;vector-effect:none;fill:none;fill-opacity:1;fill-rule:nonzero;stroke:#000000;stroke-width:0.241388;stroke-linecap:round;stroke-linejoin:round;stroke-miterlimit:4;stroke-dasharray:none;stroke-dashoffset:0;stroke-opacity:1;stop-color:#000000"
           id="path1511"
           inkscape:label="pen - fader level r 09"
           sodipodi:nodetypes="ccc" />
        <path
           d="m 226.3422,233.2047 h -5.026 5.026"
           style="font-variation-settings:normal;vector-effect:none;fill:none;fill-opacity:1;fill-rule:nonzero;stroke:#000000;stroke-width:0.241388;stroke-linecap:round;stroke-linejoin:round;stroke-miterlimit:4;stroke-dasharray:none;stroke-dashoffset:0;stroke-opacity:1;stop-color:#000000"
           id="path1513"
           inkscape:label="pen - fader level r 08"
           sodipodi:nodetypes="ccc" />
        <path
           d="m 226.3422,237.2137 h -5.026 5.026"
           style="font-variation-settings:normal;vector-effect:none;fill:none;fill-opacity:1;fill-rule:nonzero;stroke:#000000;stroke-width:0.241388;stroke-linecap:round;stroke-linejoin:round;stroke-miterlimit:4;stroke-dasharray:none;stroke-dashoffset:0;stroke-opacity:1;stop-color:#000000"
           id="path1515"
           inkscape:label="pen - fader level r 07"
           sodipodi:nodetypes="ccc" />
        <path
           d="m 226.33589,241.84523 h -5.026 5.026"
           style="font-variation-settings:normal;vector-effect:none;fill:none;fill-opacity:1;fill-rule:nonzero;stroke:#000000;stroke-width:0.241388;stroke-linecap:round;stroke-linejoin:round;stroke-miterlimit:4;stroke-dasharray:none;stroke-dashoffset:0;stroke-opacity:1;stop-color:#000000"
           id="path1517"
           inkscape:label="pen - fader level r 06"
           sodipodi:nodetypes="ccc" />
        <path
           d="m 226.33595,246.33894 h -5.026 5.026"
           style="font-variation-settings:normal;vector-effect:none;fill:none;fill-opacity:1;fill-rule:nonzero;stroke:#000000;stroke-width:0.241388;stroke-linecap:round;stroke-linejoin:round;stroke-miterlimit:4;stroke-dasharray:none;stroke-dashoffset:0;stroke-opacity:1;stop-color:#000000"
           id="path1519"
           inkscape:label="pen - fader level r 05"
           sodipodi:nodetypes="ccc" />
        <path
           d="m 226.34739,254.10575 h -5.026 5.026"
           style="font-variation-settings:normal;vector-effect:none;fill:none;fill-opacity:1;fill-rule:nonzero;stroke:#000000;stroke-width:0.241388;stroke-linecap:round;stroke-linejoin:round;stroke-miterlimit:4;stroke-dasharray:none;stroke-dashoffset:0;stroke-opacity:1;stop-color:#000000"
           id="path1521"
           inkscape:label="pen - fader level r 04"
           sodipodi:nodetypes="ccc" />
        <path
           d="m 226.3422,263.162 h -5.026 5.026"
           style="font-variation-settings:normal;display:inline;vector-effect:none;fill:none;fill-opacity:1;fill-rule:nonzero;stroke:#000000;stroke-width:0.241388;stroke-linecap:round;stroke-linejoin:round;stroke-miterlimit:4;stroke-dasharray:none;stroke-dashoffset:0;stroke-opacity:1;stop-color:#000000"
           id="path1523"
           inkscape:label="pen - fader level r 03"
           sodipodi:nodetypes="ccc" />
        <path
           d="m 226.3422,269.2795 h -5.026 5.026"
           style="font-variation-settings:normal;vector-effect:none;fill:none;fill-opacity:1;fill-rule:nonzero;stroke:#000000;stroke-width:0.241388;stroke-linecap:round;stroke-linejoin:round;stroke-miterlimit:4;stroke-dasharray:none;stroke-dashoffset:0;stroke-opacity:1;stop-color:#000000"
           id="path1525"
           inkscape:label="pen - fader level r 02"
           sodipodi:nodetypes="ccc" />
        <path
           d="m 228.6421,277.3482 h -7.326 7.326"
           style="font-variation-settings:normal;vector-effect:none;fill:none;fill-opacity:1;fill-rule:nonzero;stroke:#000000;stroke-width:0.241388;stroke-linecap:round;stroke-linejoin:round;stroke-miterlimit:4;stroke-dasharray:none;stroke-dashoffset:0;stroke-opacity:1;stop-color:#000000"
           id="path1527"
           inkscape:label="pen - fader level r 01"
           sodipodi:nodetypes="ccc" />
        <path
           d="m 215.9472,223.1329 h -7.326 z"
           style="font-variation-settings:normal;vector-effect:none;fill:none;fill-opacity:1;fill-rule:nonzero;stroke:#000000;stroke-width:0.241388;stroke-linecap:round;stroke-linejoin:round;stroke-miterlimit:4;stroke-dasharray:none;stroke-dashoffset:0;stroke-opacity:1;stop-color:#000000"
           id="path1529"
           inkscape:label="pen - fader level l 12"
           sodipodi:nodetypes="ccc" />
        <path
           d="m 215.9472,225.5041 h -5.026 z"
           style="font-variation-settings:normal;vector-effect:none;fill:none;fill-opacity:1;fill-rule:nonzero;stroke:#000000;stroke-width:0.241388;stroke-linecap:round;stroke-linejoin:round;stroke-miterlimit:4;stroke-dasharray:none;stroke-dashoffset:0;stroke-opacity:1;stop-color:#000000"
           id="path1531"
           inkscape:label="pen - fader level l 11"
           sodipodi:nodetypes="ccc" />
        <path
           d="m 215.9472,227.6145 h -5.026 z"
           style="font-variation-settings:normal;vector-effect:none;fill:none;fill-opacity:1;fill-rule:nonzero;stroke:#000000;stroke-width:0.241388;stroke-linecap:round;stroke-linejoin:round;stroke-miterlimit:4;stroke-dasharray:none;stroke-dashoffset:0;stroke-opacity:1;stop-color:#000000"
           id="path1533"
           inkscape:label="pen - fader level l 10"
           sodipodi:nodetypes="ccc" />
        <path
           d="m 215.9472,229.9349 h -5.026 z"
           style="font-variation-settings:normal;vector-effect:none;fill:none;fill-opacity:1;fill-rule:nonzero;stroke:#000000;stroke-width:0.241388;stroke-linecap:round;stroke-linejoin:round;stroke-miterlimit:4;stroke-dasharray:none;stroke-dashoffset:0;stroke-opacity:1;stop-color:#000000"
           id="path1535"
           inkscape:label="pen - fader level l 09"
           sodipodi:nodetypes="ccc" />
        <path
           d="m 215.9472,233.2047 h -5.026 z"
           style="font-variation-settings:normal;vector-effect:none;fill:none;fill-opacity:1;fill-rule:nonzero;stroke:#000000;stroke-width:0.241388;stroke-linecap:round;stroke-linejoin:round;stroke-miterlimit:4;stroke-dasharray:none;stroke-dashoffset:0;stroke-opacity:1;stop-color:#000000"
           id="path1537"
           inkscape:label="pen - fader level l 08"
           sodipodi:nodetypes="ccc" />
        <path
           d="m 215.9472,237.2137 h -5.026 z"
           style="font-variation-settings:normal;vector-effect:none;fill:none;fill-opacity:1;fill-rule:nonzero;stroke:#000000;stroke-width:0.241388;stroke-linecap:round;stroke-linejoin:round;stroke-miterlimit:4;stroke-dasharray:none;stroke-dashoffset:0;stroke-opacity:1;stop-color:#000000"
           id="path1539"
           inkscape:label="pen - fader level l 07"
           sodipodi:nodetypes="ccc" />
        <path
           d="m 215.94089,241.84523 h -5.026 z"
           style="font-variation-settings:normal;vector-effect:none;fill:none;fill-opacity:1;fill-rule:nonzero;stroke:#000000;stroke-width:0.241388;stroke-linecap:round;stroke-linejoin:round;stroke-miterlimit:4;stroke-dasharray:none;stroke-dashoffset:0;stroke-opacity:1;stop-color:#000000"
           id="path1541"
           inkscape:label="pen - fader level l 06"
           sodipodi:nodetypes="ccc" />
        <path
           d="m 215.94095,246.33894 h -5.026 z"
           style="font-variation-settings:normal;vector-effect:none;fill:none;fill-opacity:1;fill-rule:nonzero;stroke:#000000;stroke-width:0.241388;stroke-linecap:round;stroke-linejoin:round;stroke-miterlimit:4;stroke-dasharray:none;stroke-dashoffset:0;stroke-opacity:1;stop-color:#000000"
           id="path1543"
           inkscape:label="pen - fader level l 05"
           sodipodi:nodetypes="ccc" />
        <path
           d="m 215.95239,254.10575 h -5.026 z"
           style="font-variation-settings:normal;vector-effect:none;fill:none;fill-opacity:1;fill-rule:nonzero;stroke:#000000;stroke-width:0.241388;stroke-linecap:round;stroke-linejoin:round;stroke-miterlimit:4;stroke-dasharray:none;stroke-dashoffset:0;stroke-opacity:1;stop-color:#000000"
           id="path1545"
           inkscape:label="pen - fader level l 04"
           sodipodi:nodetypes="ccc" />
        <path
           d="m 215.9472,263.162 h -5.026 z"
           style="font-variation-settings:normal;vector-effect:none;fill:none;fill-opacity:1;fill-rule:nonzero;stroke:#000000;stroke-width:0.241388;stroke-linecap:round;stroke-linejoin:round;stroke-miterlimit:4;stroke-dasharray:none;stroke-dashoffset:0;stroke-opacity:1;stop-color:#000000"
           id="path1547"
           inkscape:label="pen - fader level l 03"
           sodipodi:nodetypes="ccc" />
        <path
           d="m 215.9472,269.2795 h -5.026 z"
           style="font-variation-settings:normal;vector-effect:none;fill:none;fill-opacity:1;fill-rule:nonzero;stroke:#000000;stroke-width:0.241388;stroke-linecap:round;stroke-linejoin:round;stroke-miterlimit:4;stroke-dasharray:none;stroke-dashoffset:0;stroke-opacity:1;stop-color:#000000"
           id="path1549"
           inkscape:label="pen - fader level l 02"
           sodipodi:nodetypes="ccc" />
        <path
           d="m 215.9472,277.3482 h -7.326 z"
           style="font-variation-settings:normal;display:inline;vector-effect:none;fill:none;fill-opacity:1;fill-rule:nonzero;stroke:#000000;stroke-width:0.241388;stroke-linecap:round;stroke-linejoin:round;stroke-miterlimit:4;stroke-dasharray:none;stroke-dashoffset:0;stroke-opacity:1;stop-color:#000000"
           id="path1551"
           inkscape:label="pen - fader level l 01"
           sodipodi:nodetypes="ccc" />
      </g>
      <g
         id="g1579"
         inkscape:label="channel pot 1"
         transform="translate(-164.18269,-2.85e-4)"
         style="display:inline">
        <path
           d="m 271.60724,107.64039 c 0,-3.85851 -3.12857,-6.98625 -6.98708,-6.98625 -3.86017,0 -6.98874,3.12774 -6.98874,6.98625 0,3.85934 3.12857,6.98791 6.98874,6.98791 3.85851,0 6.98708,-3.12857 6.98708,-6.98791 z"
           style="fill:none;stroke:#231f20;stroke-width:0.199678;stroke-linecap:round;stroke-linejoin:round;stroke-miterlimit:10;stroke-dasharray:none;stroke-opacity:1"
           id="path1555"
           inkscape:label="cut - channel pot" />
        <path
           d="m 269.84452,114.3321 c -0.10771,-0.12594 -0.0903,-0.31485 0.0373,-0.4209 0.12594,-0.10605 0.31485,-0.0886 0.4209,0.0373 0.10771,0.12676 0.0903,0.31484 -0.0373,0.42089 -0.12677,0.10771 -0.31485,0.0911 -0.4209,-0.0373"
           style="fill:#000000;fill-opacity:1;fill-rule:nonzero;stroke:none;stroke-width:0.829;stroke-miterlimit:4;stroke-dasharray:none"
           id="path1557"
           inkscape:label="pen - channel pot level 11" />
        <path
           d="m 272.37439,111.09707 c -0.15245,-0.0613 -0.22619,-0.23613 -0.16488,-0.38941 0.0613,-0.15328 0.23613,-0.22785 0.38859,-0.16654 0.15493,0.0621 0.2295,0.23696 0.16653,0.39107 -0.063,0.15245 -0.23613,0.22702 -0.39024,0.16488"
           style="fill:#000000;fill-opacity:1;fill-rule:nonzero;stroke:none;stroke-width:0.829;stroke-miterlimit:4;stroke-dasharray:none"
           id="path1559"
           inkscape:label="pen - channel pot level 10" />
        <path
           d="m 273.08966,107.0513 c -0.16488,0.0174 -0.31236,-0.10108 -0.3281,-0.26596 -0.0182,-0.16488 0.10191,-0.31153 0.26513,-0.32976 0.16488,-0.0157 0.31236,0.10191 0.32976,0.26762 0.0166,0.16405 -0.10357,0.3107 -0.26679,0.3281"
           style="fill:#000000;fill-opacity:1;fill-rule:nonzero;stroke:none;stroke-width:0.829;stroke-miterlimit:4;stroke-dasharray:none"
           id="path1561"
           inkscape:label="pen - channel pot level 09" />
        <path
           d="m 271.82084,103.14473 c -0.13754,0.092 -0.32396,0.0555 -0.4151,-0.0812 -0.092,-0.13753 -0.0563,-0.3223 0.082,-0.4151 0.13588,-0.0928 0.32147,-0.0563 0.41427,0.0804 0.092,0.13671 0.0563,0.32313 -0.0812,0.41593"
           style="fill:#000000;fill-opacity:1;fill-rule:nonzero;stroke:none;stroke-width:0.829;stroke-miterlimit:4;stroke-dasharray:none"
           id="path1563"
           inkscape:label="pen - channel pot level 08" />
        <path
           d="m 268.86792,100.28917 c -0.0787,0.14665 -0.25933,0.20216 -0.40598,0.12345 -0.14583,-0.0762 -0.20051,-0.25767 -0.12429,-0.40433 0.0787,-0.145818 0.26099,-0.201331 0.40682,-0.123448 0.14499,0.07705 0.2005,0.258508 0.12345,0.404328"
           style="fill:#000000;fill-opacity:1;fill-rule:nonzero;stroke:none;stroke-width:0.829;stroke-miterlimit:4;stroke-dasharray:none"
           id="path1565"
           inkscape:label="pen - channel pot level 07" />
        <path
           d="m 264.91835,99.15556 c 0,0.16488 -0.1334,0.299932 -0.29827,0.299932 -0.16654,0 -0.29994,-0.135052 -0.29994,-0.299932 0,-0.16488 0.1334,-0.298275 0.29994,-0.298275 0.16487,0 0.29827,0.133395 0.29827,0.298275"
           style="fill:#000000;fill-opacity:1;fill-rule:nonzero;stroke:none;stroke-width:0.829;stroke-miterlimit:4;stroke-dasharray:none"
           id="path1567"
           inkscape:label="pen - channel pot level 06" />
        <path
           d="m 260.90092,100.00838 c 0.0771,0.14665 0.0215,0.3281 -0.12345,0.40433 -0.14665,0.0787 -0.3281,0.0232 -0.40516,-0.12345 -0.0779,-0.14583 -0.0215,-0.327278 0.12428,-0.404333 0.14583,-0.07788 0.32645,-0.02237 0.40433,0.123453"
           style="fill:#000000;fill-opacity:1;fill-rule:nonzero;stroke:none;stroke-width:0.829;stroke-miterlimit:4;stroke-dasharray:none"
           id="path1569"
           inkscape:label="pen - channel pot level 05" />
        <path
           d="m 257.7533,102.64869 c 0.13588,0.092 0.17316,0.27756 0.0804,0.4151 -0.0928,0.13671 -0.27839,0.17316 -0.41593,0.0812 -0.13588,-0.0936 -0.17316,-0.27922 -0.0795,-0.41593 0.0911,-0.13671 0.27756,-0.17317 0.4151,-0.0804"
           style="fill:#000000;fill-opacity:1;fill-rule:nonzero;stroke:none;stroke-width:0.829;stroke-miterlimit:4;stroke-dasharray:none"
           id="path1571"
           inkscape:label="pen - channel pot level 04" />
        <path
           d="m 256.21263,106.45583 c 0.16488,0.0174 0.28336,0.16488 0.26679,0.32893 -0.0174,0.16571 -0.16488,0.28419 -0.32893,0.26679 -0.16488,-0.0174 -0.28419,-0.16405 -0.26596,-0.32893 0.0157,-0.16488 0.16322,-0.28336 0.3281,-0.26679"
           style="fill:#000000;fill-opacity:1;fill-rule:nonzero;stroke:none;stroke-width:0.829;stroke-miterlimit:4;stroke-dasharray:none"
           id="path1573"
           inkscape:label="pen - channel pot level 03" />
        <path
           d="m 256.64065,110.5412 c 0.15411,-0.0613 0.32727,0.0133 0.38941,0.16654 0.0613,0.15328 -0.0116,0.3281 -0.16488,0.38941 -0.15328,0.0621 -0.3281,-0.0124 -0.38941,-0.16488 -0.0621,-0.15411 0.0116,-0.32893 0.16488,-0.39107"
           style="fill:#000000;fill-opacity:1;fill-rule:nonzero;stroke:none;stroke-width:0.829;stroke-miterlimit:4;stroke-dasharray:none"
           id="path1575"
           inkscape:label="pen - channel pot level 02" />
        <path
           d="m 258.93621,113.94857 c 0.10605,-0.12594 0.29496,-0.14334 0.42256,-0.0373 0.12593,0.10605 0.14333,0.29496 0.0373,0.42089 -0.10771,0.12843 -0.29662,0.145 -0.42256,0.0373 -0.12676,-0.10605 -0.14333,-0.29413 -0.0373,-0.4209"
           style="fill:#000000;fill-opacity:1;fill-rule:nonzero;stroke:none;stroke-width:0.829;stroke-miterlimit:4;stroke-dasharray:none"
           id="path1577"
           inkscape:label="pen - channel pot level 01" />
      </g>
      <g
         id="g1589"
         inkscape:label="channel buttons 1"
         style="display:inline">
        <path
           d="m 93.925667,86.37897 0.03314,-0.330588 0.09611,-0.318988 0.157423,-0.293303 0.212106,-0.256848 0.256848,-0.210449 0.293303,-0.157422 0.316503,-0.09611 0.332244,-0.03314 h 9.583726 l 0.33059,0.03314 0.31816,0.09611 0.29413,0.157422 0.25685,0.210449 0.21045,0.256848 0.15659,0.293303 0.0961,0.318988 0.0331,0.330588 v 3.59338 l -0.0331,0.331416 -0.0961,0.31816 -0.15659,0.294131 -0.21045,0.256019 -0.25685,0.211278 -0.29413,0.156594 -0.31816,0.09694 -0.33059,0.03314 h -9.583726 l -0.332244,-0.03314 -0.316503,-0.09694 -0.293303,-0.156594 -0.256848,-0.211278 -0.212106,-0.256019 -0.157423,-0.294131 -0.09611,-0.31816 -0.03314,-0.331416 z"
           style="fill:none;stroke:#231f20;stroke-width:0.199678;stroke-linecap:round;stroke-linejoin:round;stroke-miterlimit:10;stroke-dasharray:none;stroke-opacity:1"
           id="path1581"
           inkscape:label="cut - channel button" />
        <path
           d="m 93.925667,75.398738 0.03314,-0.331416 0.09611,-0.31816 0.157423,-0.293303 0.212106,-0.256848 0.256848,-0.211277 0.293303,-0.156594 0.316503,-0.09694 0.332244,-0.03148 h 9.583726 l 0.33059,0.03148 0.31816,0.09694 0.29413,0.156594 0.25685,0.211277 0.21045,0.256848 0.15659,0.293303 0.0961,0.31816 0.0331,0.331416 v 3.594208 l -0.0331,0.330588 -0.0961,0.31816 -0.15659,0.293303 -0.21045,0.256847 -0.25685,0.211278 -0.29413,0.156594 -0.31816,0.09777 -0.33059,0.03149 h -9.583726 l -0.332244,-0.03149 -0.316503,-0.09777 -0.293303,-0.156594 -0.256848,-0.211278 -0.212106,-0.256847 -0.157423,-0.293303 -0.09611,-0.31816 -0.03314,-0.330588 z"
           style="fill:none;stroke:#231f20;stroke-width:0.199678;stroke-linecap:round;stroke-linejoin:round;stroke-miterlimit:10;stroke-dasharray:none;stroke-opacity:1"
           id="path1583"
           inkscape:label="cut - channel button" />
        <path
           d="m 93.925667,64.418423 0.03314,-0.330588 0.09611,-0.318159 0.157423,-0.294961 0.212106,-0.256019 0.256848,-0.211277 0.293303,-0.157423 0.316503,-0.09611 0.332244,-0.03314 h 9.583726 l 0.33059,0.03314 0.31816,0.09611 0.29413,0.157423 0.25685,0.211277 0.21045,0.256019 0.15659,0.294961 0.0961,0.318159 0.0331,0.330588 v 3.594208 l -0.0331,0.329759 -0.0961,0.318989 -0.15659,0.294131 -0.21045,0.256848 -0.25685,0.210449 -0.29413,0.156594 -0.31816,0.09694 -0.33059,0.03231 H 95.623344 L 95.2911,69.676341 94.974597,69.579401 94.681294,69.422807 94.424446,69.212358 94.21234,68.95551 94.054917,68.661379 93.958807,68.34239 93.925667,68.012631 Z"
           style="fill:none;stroke:#231f20;stroke-width:0.199678;stroke-linecap:round;stroke-linejoin:round;stroke-miterlimit:10;stroke-dasharray:none;stroke-opacity:1"
           id="path1585"
           inkscape:label="cut - channel button" />
        <path
           d="m 93.925667,53.437445 0.03314,-0.329759 0.09611,-0.318988 0.157423,-0.293303 0.212106,-0.256848 0.256848,-0.210449 0.293303,-0.157423 0.316503,-0.09611 0.332244,-0.03314 h 9.583726 l 0.33059,0.03314 0.31816,0.09611 0.29413,0.157423 0.25685,0.210449 0.21045,0.256848 0.15659,0.293303 0.0961,0.318988 0.0331,0.329759 v 3.594208 l -0.0331,0.331417 -0.0961,0.318159 -0.15659,0.294132 -0.21045,0.256019 -0.25685,0.211278 -0.29413,0.156594 -0.31816,0.09694 -0.33059,0.03314 H 95.623344 L 95.2911,58.696192 94.974597,58.599252 94.681294,58.442658 94.424446,58.23138 94.21234,57.975361 94.054917,57.681229 93.958807,57.36307 93.925667,57.031653 Z"
           style="opacity:1;fill:none;stroke:#231f20;stroke-width:0.2;stroke-linecap:round;stroke-linejoin:round;stroke-miterlimit:10;stroke-dasharray:none;stroke-opacity:1"
           id="path1587"
           inkscape:label="cut - channel button" />
      </g>
    </g>
    <g
       id="g504"
       inkscape:label="channel 1"
       style="display:inline">
      <g
         id="g3121-8-8"
         style="font-variation-settings:normal;display:inline;vector-effect:none;fill:none;fill-opacity:1;stroke:#000000;stroke-width:0.241388;stroke-linecap:round;stroke-linejoin:round;stroke-miterlimit:4;stroke-dasharray:none;stroke-dashoffset:0;stroke-opacity:1;stop-color:#000000"
         transform="matrix(0.82854043,0,0,-0.82854043,-80.745236,359.17549)"
         inkscape:label="channel fader 1">
        <path
           style="font-variation-settings:normal;display:inline;vector-effect:none;fill:none;fill-opacity:1;stroke:#000000;stroke-width:0.241388;stroke-linecap:round;stroke-linejoin:round;stroke-miterlimit:4;stroke-dasharray:none;stroke-dashoffset:0;stroke-opacity:1;stop-color:#000000"
           d="m 219.4695,217.4936 0.226,0.068 0.207,0.111 0.183,0.152 0.15,0.182 0.111,0.207 0.07,0.227 0.023,0.24339 c 7e-5,20.87717 5e-5,41.75435 5e-5,62.63152 l -0.023,0.24239 -0.07,0.226 -0.111,0.21 -0.15,0.183 -0.183,0.149 -0.207,0.111 -0.226,0.068 -0.83865,0.009 -0.83665,-0.009 -0.226,-0.068 -0.209,-0.111 -0.183,-0.15 -0.149,-0.182 -0.111,-0.21 -0.069,-0.226 -0.022,-0.23814 c -5e-5,-20.87966 -8e-5,-41.75932 -1e-4,-62.63898 l 0.022,-0.24038 0.069,-0.227 0.111,-0.207 0.15,-0.183 0.182,-0.151 0.209,-0.111 0.226,-0.068 0.83667,-0.009 z"
           id="path486"
           sodipodi:nodetypes="ccccccccccccccccccccccccccccccccccc"
           inkscape:label="cut - fader groove merged" />
        <path
           d="m 228.6421,223.1329 h -7.326 7.326"
           style="font-variation-settings:normal;vector-effect:none;fill:none;fill-opacity:1;fill-rule:nonzero;stroke:#000000;stroke-width:0.241388;stroke-linecap:round;stroke-linejoin:round;stroke-miterlimit:4;stroke-dasharray:none;stroke-dashoffset:0;stroke-opacity:1;stop-color:#000000"
           id="path5887-8-5"
           inkscape:label="pen - fader level r 12"
           sodipodi:nodetypes="ccc" />
        <path
           d="m 226.3422,225.5041 h -5.026 5.026"
           style="font-variation-settings:normal;vector-effect:none;fill:none;fill-opacity:1;fill-rule:nonzero;stroke:#000000;stroke-width:0.241388;stroke-linecap:round;stroke-linejoin:round;stroke-miterlimit:4;stroke-dasharray:none;stroke-dashoffset:0;stroke-opacity:1;stop-color:#000000"
           id="path5891-0-0"
           inkscape:label="pen - fader level r 11"
           sodipodi:nodetypes="ccc" />
        <path
           d="m 226.3422,227.6145 h -5.026 5.026"
           style="font-variation-settings:normal;vector-effect:none;fill:none;fill-opacity:1;fill-rule:nonzero;stroke:#000000;stroke-width:0.241388;stroke-linecap:round;stroke-linejoin:round;stroke-miterlimit:4;stroke-dasharray:none;stroke-dashoffset:0;stroke-opacity:1;stop-color:#000000"
           id="path5895-7-4"
           inkscape:label="pen - fader level r 10"
           sodipodi:nodetypes="ccc" />
        <path
           d="m 226.3422,229.9349 h -5.026 5.026"
           style="font-variation-settings:normal;vector-effect:none;fill:none;fill-opacity:1;fill-rule:nonzero;stroke:#000000;stroke-width:0.241388;stroke-linecap:round;stroke-linejoin:round;stroke-miterlimit:4;stroke-dasharray:none;stroke-dashoffset:0;stroke-opacity:1;stop-color:#000000"
           id="path5903-9-4"
           inkscape:label="pen - fader level r 09"
           sodipodi:nodetypes="ccc" />
        <path
           d="m 226.3422,233.2047 h -5.026 5.026"
           style="font-variation-settings:normal;vector-effect:none;fill:none;fill-opacity:1;fill-rule:nonzero;stroke:#000000;stroke-width:0.241388;stroke-linecap:round;stroke-linejoin:round;stroke-miterlimit:4;stroke-dasharray:none;stroke-dashoffset:0;stroke-opacity:1;stop-color:#000000"
           id="path5899-9-7"
           inkscape:label="pen - fader level r 08"
           sodipodi:nodetypes="ccc" />
        <path
           d="m 226.3422,237.2137 h -5.026 5.026"
           style="font-variation-settings:normal;vector-effect:none;fill:none;fill-opacity:1;fill-rule:nonzero;stroke:#000000;stroke-width:0.241388;stroke-linecap:round;stroke-linejoin:round;stroke-miterlimit:4;stroke-dasharray:none;stroke-dashoffset:0;stroke-opacity:1;stop-color:#000000"
           id="path5907-7-3"
           inkscape:label="pen - fader level r 07"
           sodipodi:nodetypes="ccc" />
        <path
           d="m 226.33589,241.84523 h -5.026 5.026"
           style="font-variation-settings:normal;vector-effect:none;fill:none;fill-opacity:1;fill-rule:nonzero;stroke:#000000;stroke-width:0.241388;stroke-linecap:round;stroke-linejoin:round;stroke-miterlimit:4;stroke-dasharray:none;stroke-dashoffset:0;stroke-opacity:1;stop-color:#000000"
           id="path5923-3-0-7-3-0"
           inkscape:label="pen - fader level r 06"
           sodipodi:nodetypes="ccc" />
        <path
           d="m 226.33595,246.33894 h -5.026 5.026"
           style="font-variation-settings:normal;vector-effect:none;fill:none;fill-opacity:1;fill-rule:nonzero;stroke:#000000;stroke-width:0.241388;stroke-linecap:round;stroke-linejoin:round;stroke-miterlimit:4;stroke-dasharray:none;stroke-dashoffset:0;stroke-opacity:1;stop-color:#000000"
           id="path5923-3-0-1-0"
           inkscape:label="pen - fader level r 05"
           sodipodi:nodetypes="ccc" />
        <path
           d="m 226.34739,254.10575 h -5.026 5.026"
           style="font-variation-settings:normal;vector-effect:none;fill:none;fill-opacity:1;fill-rule:nonzero;stroke:#000000;stroke-width:0.241388;stroke-linecap:round;stroke-linejoin:round;stroke-miterlimit:4;stroke-dasharray:none;stroke-dashoffset:0;stroke-opacity:1;stop-color:#000000"
           id="path5923-3-7-7"
           inkscape:label="pen - fader level r 04"
           sodipodi:nodetypes="ccc" />
        <path
           d="m 226.3422,263.162 h -5.026 5.026"
           style="font-variation-settings:normal;display:inline;vector-effect:none;fill:none;fill-opacity:1;fill-rule:nonzero;stroke:#000000;stroke-width:0.241388;stroke-linecap:round;stroke-linejoin:round;stroke-miterlimit:4;stroke-dasharray:none;stroke-dashoffset:0;stroke-opacity:1;stop-color:#000000"
           id="path5923-6-8"
           inkscape:label="pen - fader level r 03"
           sodipodi:nodetypes="ccc" />
        <path
           d="m 226.3422,269.2795 h -5.026 5.026"
           style="font-variation-settings:normal;vector-effect:none;fill:none;fill-opacity:1;fill-rule:nonzero;stroke:#000000;stroke-width:0.241388;stroke-linecap:round;stroke-linejoin:round;stroke-miterlimit:4;stroke-dasharray:none;stroke-dashoffset:0;stroke-opacity:1;stop-color:#000000"
           id="path5927-1-1"
           inkscape:label="pen - fader level r 02"
           sodipodi:nodetypes="ccc" />
        <path
           d="m 228.6421,277.3482 h -7.326 7.326"
           style="font-variation-settings:normal;vector-effect:none;fill:none;fill-opacity:1;fill-rule:nonzero;stroke:#000000;stroke-width:0.241388;stroke-linecap:round;stroke-linejoin:round;stroke-miterlimit:4;stroke-dasharray:none;stroke-dashoffset:0;stroke-opacity:1;stop-color:#000000"
           id="path5931-2-9"
           inkscape:label="pen - fader level r 01"
           sodipodi:nodetypes="ccc" />
        <path
           d="m 215.9472,223.1329 h -7.326 z"
           style="font-variation-settings:normal;vector-effect:none;fill:none;fill-opacity:1;fill-rule:nonzero;stroke:#000000;stroke-width:0.241388;stroke-linecap:round;stroke-linejoin:round;stroke-miterlimit:4;stroke-dasharray:none;stroke-dashoffset:0;stroke-opacity:1;stop-color:#000000"
           id="path5883-7-1"
           inkscape:label="pen - fader level l 12"
           sodipodi:nodetypes="ccc" />
        <path
           d="m 215.9472,225.5041 h -5.026 z"
           style="font-variation-settings:normal;vector-effect:none;fill:none;fill-opacity:1;fill-rule:nonzero;stroke:#000000;stroke-width:0.241388;stroke-linecap:round;stroke-linejoin:round;stroke-miterlimit:4;stroke-dasharray:none;stroke-dashoffset:0;stroke-opacity:1;stop-color:#000000"
           id="path5879-3-5"
           inkscape:label="pen - fader level l 11"
           sodipodi:nodetypes="ccc" />
        <path
           d="m 215.9472,227.6145 h -5.026 z"
           style="font-variation-settings:normal;vector-effect:none;fill:none;fill-opacity:1;fill-rule:nonzero;stroke:#000000;stroke-width:0.241388;stroke-linecap:round;stroke-linejoin:round;stroke-miterlimit:4;stroke-dasharray:none;stroke-dashoffset:0;stroke-opacity:1;stop-color:#000000"
           id="path5875-9-6"
           inkscape:label="pen - fader level l 10"
           sodipodi:nodetypes="ccc" />
        <path
           d="m 215.9472,229.9349 h -5.026 z"
           style="font-variation-settings:normal;vector-effect:none;fill:none;fill-opacity:1;fill-rule:nonzero;stroke:#000000;stroke-width:0.241388;stroke-linecap:round;stroke-linejoin:round;stroke-miterlimit:4;stroke-dasharray:none;stroke-dashoffset:0;stroke-opacity:1;stop-color:#000000"
           id="path5871-5-3"
           inkscape:label="pen - fader level l 09"
           sodipodi:nodetypes="ccc" />
        <path
           d="m 215.9472,233.2047 h -5.026 z"
           style="font-variation-settings:normal;vector-effect:none;fill:none;fill-opacity:1;fill-rule:nonzero;stroke:#000000;stroke-width:0.241388;stroke-linecap:round;stroke-linejoin:round;stroke-miterlimit:4;stroke-dasharray:none;stroke-dashoffset:0;stroke-opacity:1;stop-color:#000000"
           id="path5867-4-9"
           inkscape:label="pen - fader level l 08"
           sodipodi:nodetypes="ccc" />
        <path
           d="m 215.9472,237.2137 h -5.026 z"
           style="font-variation-settings:normal;vector-effect:none;fill:none;fill-opacity:1;fill-rule:nonzero;stroke:#000000;stroke-width:0.241388;stroke-linecap:round;stroke-linejoin:round;stroke-miterlimit:4;stroke-dasharray:none;stroke-dashoffset:0;stroke-opacity:1;stop-color:#000000"
           id="path5863-9-8"
           inkscape:label="pen - fader level l 07"
           sodipodi:nodetypes="ccc" />
        <path
           d="m 215.94089,241.84523 h -5.026 z"
           style="font-variation-settings:normal;vector-effect:none;fill:none;fill-opacity:1;fill-rule:nonzero;stroke:#000000;stroke-width:0.241388;stroke-linecap:round;stroke-linejoin:round;stroke-miterlimit:4;stroke-dasharray:none;stroke-dashoffset:0;stroke-opacity:1;stop-color:#000000"
           id="path5847-9-4-3-1-0"
           inkscape:label="pen - fader level l 06"
           sodipodi:nodetypes="ccc" />
        <path
           d="m 215.94095,246.33894 h -5.026 z"
           style="font-variation-settings:normal;vector-effect:none;fill:none;fill-opacity:1;fill-rule:nonzero;stroke:#000000;stroke-width:0.241388;stroke-linecap:round;stroke-linejoin:round;stroke-miterlimit:4;stroke-dasharray:none;stroke-dashoffset:0;stroke-opacity:1;stop-color:#000000"
           id="path5847-9-4-9-6"
           inkscape:label="pen - fader level l 05"
           sodipodi:nodetypes="ccc" />
        <path
           d="m 215.95239,254.10575 h -5.026 z"
           style="font-variation-settings:normal;vector-effect:none;fill:none;fill-opacity:1;fill-rule:nonzero;stroke:#000000;stroke-width:0.241388;stroke-linecap:round;stroke-linejoin:round;stroke-miterlimit:4;stroke-dasharray:none;stroke-dashoffset:0;stroke-opacity:1;stop-color:#000000"
           id="path5847-9-6-9"
           inkscape:label="pen - fader level l 04"
           sodipodi:nodetypes="ccc" />
        <path
           d="m 215.9472,263.162 h -5.026 z"
           style="font-variation-settings:normal;vector-effect:none;fill:none;fill-opacity:1;fill-rule:nonzero;stroke:#000000;stroke-width:0.241388;stroke-linecap:round;stroke-linejoin:round;stroke-miterlimit:4;stroke-dasharray:none;stroke-dashoffset:0;stroke-opacity:1;stop-color:#000000"
           id="path5847-0-4"
           inkscape:label="pen - fader level l 03"
           sodipodi:nodetypes="ccc" />
        <path
           d="m 215.9472,269.2795 h -5.026 z"
           style="font-variation-settings:normal;vector-effect:none;fill:none;fill-opacity:1;fill-rule:nonzero;stroke:#000000;stroke-width:0.241388;stroke-linecap:round;stroke-linejoin:round;stroke-miterlimit:4;stroke-dasharray:none;stroke-dashoffset:0;stroke-opacity:1;stop-color:#000000"
           id="path5843-1-9"
           inkscape:label="pen - fader level l 02"
           sodipodi:nodetypes="ccc" />
        <path
           d="m 215.9472,277.3482 h -7.326 z"
           style="font-variation-settings:normal;display:inline;vector-effect:none;fill:none;fill-opacity:1;fill-rule:nonzero;stroke:#000000;stroke-width:0.241388;stroke-linecap:round;stroke-linejoin:round;stroke-miterlimit:4;stroke-dasharray:none;stroke-dashoffset:0;stroke-opacity:1;stop-color:#000000"
           id="path5839-8-9"
           inkscape:label="pen - fader level l 01"
           sodipodi:nodetypes="ccc" />
      </g>
      <g
         id="g2390"
         inkscape:label="channel pot 1"
         transform="translate(-164.18269,-2.85e-4)"
         style="display:inline">
        <path
           d="m 271.60724,107.64039 c 0,-3.85851 -3.12857,-6.98625 -6.98708,-6.98625 -3.86017,0 -6.98874,3.12774 -6.98874,6.98625 0,3.85934 3.12857,6.98791 6.98874,6.98791 3.85851,0 6.98708,-3.12857 6.98708,-6.98791 z"
           style="fill:none;stroke:#231f20;stroke-width:0.199678;stroke-linecap:round;stroke-linejoin:round;stroke-miterlimit:10;stroke-dasharray:none;stroke-opacity:1"
           id="path3795"
           inkscape:label="cut - channel pot" />
        <path
           d="m 269.84452,114.3321 c -0.10771,-0.12594 -0.0903,-0.31485 0.0373,-0.4209 0.12594,-0.10605 0.31485,-0.0886 0.4209,0.0373 0.10771,0.12676 0.0903,0.31484 -0.0373,0.42089 -0.12677,0.10771 -0.31485,0.0911 -0.4209,-0.0373"
           style="fill:#000000;fill-opacity:1;fill-rule:nonzero;stroke:none;stroke-width:0.829;stroke-miterlimit:4;stroke-dasharray:none"
           id="path5135"
           inkscape:label="pen - channel pot level 11" />
        <path
           d="m 272.37439,111.09707 c -0.15245,-0.0613 -0.22619,-0.23613 -0.16488,-0.38941 0.0613,-0.15328 0.23613,-0.22785 0.38859,-0.16654 0.15493,0.0621 0.2295,0.23696 0.16653,0.39107 -0.063,0.15245 -0.23613,0.22702 -0.39024,0.16488"
           style="fill:#000000;fill-opacity:1;fill-rule:nonzero;stroke:none;stroke-width:0.829;stroke-miterlimit:4;stroke-dasharray:none"
           id="path5131"
           inkscape:label="pen - channel pot level 10" />
        <path
           d="m 273.08966,107.0513 c -0.16488,0.0174 -0.31236,-0.10108 -0.3281,-0.26596 -0.0182,-0.16488 0.10191,-0.31153 0.26513,-0.32976 0.16488,-0.0157 0.31236,0.10191 0.32976,0.26762 0.0166,0.16405 -0.10357,0.3107 -0.26679,0.3281"
           style="fill:#000000;fill-opacity:1;fill-rule:nonzero;stroke:none;stroke-width:0.829;stroke-miterlimit:4;stroke-dasharray:none"
           id="path5127"
           inkscape:label="pen - channel pot level 09" />
        <path
           d="m 271.82084,103.14473 c -0.13754,0.092 -0.32396,0.0555 -0.4151,-0.0812 -0.092,-0.13753 -0.0563,-0.3223 0.082,-0.4151 0.13588,-0.0928 0.32147,-0.0563 0.41427,0.0804 0.092,0.13671 0.0563,0.32313 -0.0812,0.41593"
           style="fill:#000000;fill-opacity:1;fill-rule:nonzero;stroke:none;stroke-width:0.829;stroke-miterlimit:4;stroke-dasharray:none"
           id="path5123"
           inkscape:label="pen - channel pot level 08" />
        <path
           d="m 268.86792,100.28917 c -0.0787,0.14665 -0.25933,0.20216 -0.40598,0.12345 -0.14583,-0.0762 -0.20051,-0.25767 -0.12429,-0.40433 0.0787,-0.145818 0.26099,-0.201331 0.40682,-0.123448 0.14499,0.07705 0.2005,0.258508 0.12345,0.404328"
           style="fill:#000000;fill-opacity:1;fill-rule:nonzero;stroke:none;stroke-width:0.829;stroke-miterlimit:4;stroke-dasharray:none"
           id="path5119"
           inkscape:label="pen - channel pot level 07" />
        <path
           d="m 264.91835,99.15556 c 0,0.16488 -0.1334,0.299932 -0.29827,0.299932 -0.16654,0 -0.29994,-0.135052 -0.29994,-0.299932 0,-0.16488 0.1334,-0.298275 0.29994,-0.298275 0.16487,0 0.29827,0.133395 0.29827,0.298275"
           style="fill:#000000;fill-opacity:1;fill-rule:nonzero;stroke:none;stroke-width:0.829;stroke-miterlimit:4;stroke-dasharray:none"
           id="path5115"
           inkscape:label="pen - channel pot level 06" />
        <path
           d="m 260.90092,100.00838 c 0.0771,0.14665 0.0215,0.3281 -0.12345,0.40433 -0.14665,0.0787 -0.3281,0.0232 -0.40516,-0.12345 -0.0779,-0.14583 -0.0215,-0.327278 0.12428,-0.404333 0.14583,-0.07788 0.32645,-0.02237 0.40433,0.123453"
           style="fill:#000000;fill-opacity:1;fill-rule:nonzero;stroke:none;stroke-width:0.829;stroke-miterlimit:4;stroke-dasharray:none"
           id="path5139"
           inkscape:label="pen - channel pot level 05" />
        <path
           d="m 257.7533,102.64869 c 0.13588,0.092 0.17316,0.27756 0.0804,0.4151 -0.0928,0.13671 -0.27839,0.17316 -0.41593,0.0812 -0.13588,-0.0936 -0.17316,-0.27922 -0.0795,-0.41593 0.0911,-0.13671 0.27756,-0.17317 0.4151,-0.0804"
           style="fill:#000000;fill-opacity:1;fill-rule:nonzero;stroke:none;stroke-width:0.829;stroke-miterlimit:4;stroke-dasharray:none"
           id="path5143"
           inkscape:label="pen - channel pot level 04" />
        <path
           d="m 256.21263,106.45583 c 0.16488,0.0174 0.28336,0.16488 0.26679,0.32893 -0.0174,0.16571 -0.16488,0.28419 -0.32893,0.26679 -0.16488,-0.0174 -0.28419,-0.16405 -0.26596,-0.32893 0.0157,-0.16488 0.16322,-0.28336 0.3281,-0.26679"
           style="fill:#000000;fill-opacity:1;fill-rule:nonzero;stroke:none;stroke-width:0.829;stroke-miterlimit:4;stroke-dasharray:none"
           id="path5147"
           inkscape:label="pen - channel pot level 03" />
        <path
           d="m 256.64065,110.5412 c 0.15411,-0.0613 0.32727,0.0133 0.38941,0.16654 0.0613,0.15328 -0.0116,0.3281 -0.16488,0.38941 -0.15328,0.0621 -0.3281,-0.0124 -0.38941,-0.16488 -0.0621,-0.15411 0.0116,-0.32893 0.16488,-0.39107"
           style="fill:#000000;fill-opacity:1;fill-rule:nonzero;stroke:none;stroke-width:0.829;stroke-miterlimit:4;stroke-dasharray:none"
           id="path5151"
           inkscape:label="pen - channel pot level 02" />
        <path
           d="m 258.93621,113.94857 c 0.10605,-0.12594 0.29496,-0.14334 0.42256,-0.0373 0.12593,0.10605 0.14333,0.29496 0.0373,0.42089 -0.10771,0.12843 -0.29662,0.145 -0.42256,0.0373 -0.12676,-0.10605 -0.14333,-0.29413 -0.0373,-0.4209"
           style="fill:#000000;fill-opacity:1;fill-rule:nonzero;stroke:none;stroke-width:0.829;stroke-miterlimit:4;stroke-dasharray:none"
           id="path5155"
           inkscape:label="pen - channel pot level 01" />
      </g>
      <g
         id="g216"
         inkscape:label="channel buttons 1"
         style="display:inline">
        <path
           d="m 93.925667,86.37897 0.03314,-0.330588 0.09611,-0.318988 0.157423,-0.293303 0.212106,-0.256848 0.256848,-0.210449 0.293303,-0.157422 0.316503,-0.09611 0.332244,-0.03314 h 9.583726 l 0.33059,0.03314 0.31816,0.09611 0.29413,0.157422 0.25685,0.210449 0.21045,0.256848 0.15659,0.293303 0.0961,0.318988 0.0331,0.330588 v 3.59338 l -0.0331,0.331416 -0.0961,0.31816 -0.15659,0.294131 -0.21045,0.256019 -0.25685,0.211278 -0.29413,0.156594 -0.31816,0.09694 -0.33059,0.03314 h -9.583726 l -0.332244,-0.03314 -0.316503,-0.09694 -0.293303,-0.156594 -0.256848,-0.211278 -0.212106,-0.256019 -0.157423,-0.294131 -0.09611,-0.31816 -0.03314,-0.331416 z"
           style="fill:none;stroke:#231f20;stroke-width:0.199678;stroke-linecap:round;stroke-linejoin:round;stroke-miterlimit:10;stroke-dasharray:none;stroke-opacity:1"
           id="path4235"
           inkscape:label="cut - channel button" />
        <path
           d="m 93.925667,75.398738 0.03314,-0.331416 0.09611,-0.31816 0.157423,-0.293303 0.212106,-0.256848 0.256848,-0.211277 0.293303,-0.156594 0.316503,-0.09694 0.332244,-0.03148 h 9.583726 l 0.33059,0.03148 0.31816,0.09694 0.29413,0.156594 0.25685,0.211277 0.21045,0.256848 0.15659,0.293303 0.0961,0.31816 0.0331,0.331416 v 3.594208 l -0.0331,0.330588 -0.0961,0.31816 -0.15659,0.293303 -0.21045,0.256847 -0.25685,0.211278 -0.29413,0.156594 -0.31816,0.09777 -0.33059,0.03149 h -9.583726 l -0.332244,-0.03149 -0.316503,-0.09777 -0.293303,-0.156594 -0.256848,-0.211278 -0.212106,-0.256847 -0.157423,-0.293303 -0.09611,-0.31816 -0.03314,-0.330588 z"
           style="fill:none;stroke:#231f20;stroke-width:0.199678;stroke-linecap:round;stroke-linejoin:round;stroke-miterlimit:10;stroke-dasharray:none;stroke-opacity:1"
           id="path4243"
           inkscape:label="cut - channel button" />
        <path
           d="m 93.925667,64.418423 0.03314,-0.330588 0.09611,-0.318159 0.157423,-0.294961 0.212106,-0.256019 0.256848,-0.211277 0.293303,-0.157423 0.316503,-0.09611 0.332244,-0.03314 h 9.583726 l 0.33059,0.03314 0.31816,0.09611 0.29413,0.157423 0.25685,0.211277 0.21045,0.256019 0.15659,0.294961 0.0961,0.318159 0.0331,0.330588 v 3.594208 l -0.0331,0.329759 -0.0961,0.318989 -0.15659,0.294131 -0.21045,0.256848 -0.25685,0.210449 -0.29413,0.156594 -0.31816,0.09694 -0.33059,0.03231 H 95.623344 L 95.2911,69.676341 94.974597,69.579401 94.681294,69.422807 94.424446,69.212358 94.21234,68.95551 94.054917,68.661379 93.958807,68.34239 93.925667,68.012631 Z"
           style="fill:none;stroke:#231f20;stroke-width:0.199678;stroke-linecap:round;stroke-linejoin:round;stroke-miterlimit:10;stroke-dasharray:none;stroke-opacity:1"
           id="path4251"
           inkscape:label="cut - channel button" />
        <path
           d="m 93.925667,53.437445 0.03314,-0.329759 0.09611,-0.318988 0.157423,-0.293303 0.212106,-0.256848 0.256848,-0.210449 0.293303,-0.157423 0.316503,-0.09611 0.332244,-0.03314 h 9.583726 l 0.33059,0.03314 0.31816,0.09611 0.29413,0.157423 0.25685,0.210449 0.21045,0.256848 0.15659,0.293303 0.0961,0.318988 0.0331,0.329759 v 3.594208 l -0.0331,0.331417 -0.0961,0.318159 -0.15659,0.294132 -0.21045,0.256019 -0.25685,0.211278 -0.29413,0.156594 -0.31816,0.09694 -0.33059,0.03314 H 95.623344 L 95.2911,58.696192 94.974597,58.599252 94.681294,58.442658 94.424446,58.23138 94.21234,57.975361 94.054917,57.681229 93.958807,57.36307 93.925667,57.031653 Z"
           style="opacity:1;fill:none;stroke:#231f20;stroke-width:0.2;stroke-linecap:round;stroke-linejoin:round;stroke-miterlimit:10;stroke-dasharray:none;stroke-opacity:1"
           id="path4259"
           inkscape:label="cut - channel button" />
      </g>
    </g>
  </g>
</svg>
