<?xml version="1.0" encoding="UTF-8" standalone="no"?>
<svg
   xmlns:dc="http://purl.org/dc/elements/1.1/"
   xmlns:cc="http://creativecommons.org/ns#"
   xmlns:rdf="http://www.w3.org/1999/02/22-rdf-syntax-ns#"
   xmlns:svg="http://www.w3.org/2000/svg"
   xmlns="http://www.w3.org/2000/svg"
   xmlns:sodipodi="http://sodipodi.sourceforge.net/DTD/sodipodi-0.dtd"
   xmlns:inkscape="http://www.inkscape.org/namespaces/inkscape"
   width="269.23901mm"
   height="140.40401mm"
   viewBox="0 0 269.23901 140.40401"
   version="1.1"
   id="svg8"
   inkscape:version="1.0.2 (e86c8708, 2021-01-15)"
   sodipodi:docname="nanokey-inkscape.svg">
  <defs
     id="defs2">
    <clipPath
       clipPathUnits="userSpaceOnUse"
       id="clipPath871">
      <path
         d="M 42.52,61.552 H 799.416 V 552.756 H 42.52 Z"
         id="path869" />
    </clipPath>
  </defs>
  <sodipodi:namedview
     id="base"
     pagecolor="#ffffff"
     bordercolor="#666666"
     borderopacity="1.0"
     inkscape:pageopacity="0.0"
     inkscape:pageshadow="2"
     inkscape:zoom="0.98994949"
     inkscape:cx="351.74665"
     inkscape:cy="318.7651"
     inkscape:document-units="mm"
     inkscape:current-layer="g5172"
     inkscape:document-rotation="0"
     showgrid="false"
     inkscape:window-width="1680"
     inkscape:window-height="1005"
     inkscape:window-x="0"
     inkscape:window-y="23"
     inkscape:window-maximized="0"
     showborder="false" />
  <metadata
     id="metadata5">
    <rdf:RDF>
      <cc:Work
         rdf:about="">
        <dc:format>image/svg+xml</dc:format>
        <dc:type
           rdf:resource="http://purl.org/dc/dcmitype/StillImage" />
        <dc:title></dc:title>
      </cc:Work>
    </rdf:RDF>
  </metadata>
  <g
     inkscape:label="nanoKEY Studio"
     inkscape:groupmode="layer"
     id="layer1">
    <path
       d="m 269.09891,4.4412194 c 0,-2.3750009 -1.92564,-4.30064416 -4.30003,-4.30072603 L 4.4400425,0.1404115 c -2.3741412,0 -4.29896577,1.9256432 -4.29929326,4.3008489 L 0.14042175,135.96462 c 0,2.37336 1.92482455,4.299 4.29945705,4.29909 l 260.3590812,8e-5 c 2.37414,0 4.29979,-1.92564 4.29987,-4.29921 z"
       style="display:inline;fill:none;stroke:#231f20;stroke-width:0.280823;stroke-linecap:round;stroke-linejoin:round;stroke-miterlimit:10;stroke-dasharray:none;stroke-opacity:1"
       id="path1143"
       sodipodi:nodetypes="ccccccccc"
       inkscape:label="outline"
       sodipodi:insensitive="true" />
    <g
       id="g5172"
       inkscape:label="piano keys"
       transform="matrix(0.81872587,0,0,-0.81872587,-92.988336,314.27513)">
      <path
         d="m 147.8642,299.4854 0.617,-0.06 0.594,-0.179 0.547,-0.292 0.478,-0.394 0.394,-0.478 0.291,-0.547 0.18,-0.594 0.061,-0.617 v -33.51 l -0.061,-0.617 -0.18,-0.594 -0.291,-0.547 -0.394,-0.479 -0.478,-0.393 -0.547,-0.291 -0.594,-0.181 -0.617,-0.061 h -13.429 l -0.617,0.061 -0.593,0.181 -0.547,0.291 -0.48,0.393 -0.393,0.479 -0.293,0.547 -0.179,0.594 -0.06,0.617 v 33.51 l 0.06,0.617 0.179,0.594 0.293,0.547 0.393,0.478 0.48,0.394 0.547,0.292 0.593,0.179 0.617,0.06 z"
         style="fill:none;stroke:#231f20;stroke-width:0.343;stroke-linecap:round;stroke-linejoin:round;stroke-miterlimit:10;stroke-dasharray:none;stroke-opacity:1"
         id="path1559" />
      <path
         d="m 137.3374,256.2823 0.617,-0.061 0.594,-0.178 0.546,-0.294 0.478,-0.393 0.394,-0.479 0.292,-0.547 0.18,-0.594 0.06,-0.616 v -33.509 l -0.06,-0.617 -0.18,-0.594 -0.292,-0.547 -0.394,-0.479 -0.478,-0.393 -0.546,-0.293 -0.594,-0.179 -0.617,-0.061 h -13.43 l -0.617,0.061 -0.593,0.179 -0.547,0.293 -0.479,0.393 -0.393,0.479 -0.293,0.547 -0.179,0.594 -0.061,0.617 v 33.509 l 0.061,0.616 0.179,0.594 0.293,0.547 0.393,0.479 0.479,0.393 0.547,0.294 0.593,0.178 0.617,0.061 z"
         style="fill:none;stroke:#231f20;stroke-width:0.343;stroke-linecap:round;stroke-linejoin:round;stroke-miterlimit:10;stroke-dasharray:none;stroke-opacity:1"
         id="path1567" />
      <path
         d="m 158.3915,256.2823 0.617,-0.061 0.594,-0.178 0.546,-0.294 0.478,-0.393 0.394,-0.479 0.292,-0.547 0.18,-0.594 0.061,-0.616 v -33.509 l -0.061,-0.617 -0.18,-0.594 -0.292,-0.547 -0.394,-0.479 -0.478,-0.393 -0.546,-0.293 -0.594,-0.179 -0.617,-0.061 h -13.43 l -0.617,0.061 -0.593,0.179 -0.547,0.293 -0.479,0.393 -0.393,0.479 -0.293,0.547 -0.179,0.594 -0.061,0.617 v 33.509 l 0.061,0.616 0.179,0.594 0.293,0.547 0.393,0.479 0.479,0.393 0.547,0.294 0.593,0.178 0.617,0.061 z"
         style="fill:none;stroke:#231f20;stroke-width:0.343;stroke-linecap:round;stroke-linejoin:round;stroke-miterlimit:10;stroke-dasharray:none;stroke-opacity:1"
         id="path1575" />
      <path
         d="m 179.4456,256.2823 0.617,-0.061 0.593,-0.178 0.547,-0.294 0.479,-0.393 0.393,-0.479 0.292,-0.547 0.18,-0.594 0.061,-0.616 v -33.509 l -0.061,-0.617 -0.18,-0.594 -0.292,-0.547 -0.393,-0.479 -0.479,-0.393 -0.547,-0.293 -0.593,-0.179 -0.617,-0.061 h -13.429 l -0.617,0.061 -0.594,0.179 -0.547,0.293 -0.479,0.393 -0.393,0.479 -0.292,0.547 -0.18,0.594 -0.061,0.617 v 33.509 l 0.061,0.616 0.18,0.594 0.292,0.547 0.393,0.479 0.479,0.393 0.547,0.294 0.594,0.178 0.617,0.061 z"
         style="fill:none;stroke:#231f20;stroke-width:0.343;stroke-linecap:round;stroke-linejoin:round;stroke-miterlimit:10;stroke-dasharray:none;stroke-opacity:1"
         id="path1583" />
      <path
         d="m 200.4998,256.2823 0.617,-0.061 0.593,-0.178 0.547,-0.294 0.48,-0.393 0.392,-0.479 0.292,-0.547 0.181,-0.594 0.061,-0.616 v -33.509 l -0.061,-0.617 -0.181,-0.594 -0.292,-0.547 -0.392,-0.479 -0.48,-0.393 -0.547,-0.293 -0.593,-0.179 -0.617,-0.061 h -13.429 l -0.617,0.061 -0.594,0.179 -0.547,0.293 -0.479,0.393 -0.393,0.479 -0.292,0.547 -0.18,0.594 -0.061,0.617 v 33.509 l 0.061,0.616 0.18,0.594 0.292,0.547 0.393,0.479 0.479,0.393 0.547,0.294 0.594,0.178 0.617,0.061 z"
         style="fill:none;stroke:#231f20;stroke-width:0.343;stroke-linecap:round;stroke-linejoin:round;stroke-miterlimit:10;stroke-dasharray:none;stroke-opacity:1"
         id="path1591" />
      <path
         d="m 221.5535,256.2823 0.617,-0.061 0.594,-0.178 0.547,-0.294 0.479,-0.393 0.393,-0.479 0.291,-0.547 0.181,-0.594 0.061,-0.616 v -33.509 l -0.061,-0.617 -0.181,-0.594 -0.291,-0.547 -0.393,-0.479 -0.479,-0.393 -0.547,-0.293 -0.594,-0.179 -0.617,-0.061 h -13.429 l -0.617,0.061 -0.593,0.179 -0.547,0.293 -0.48,0.393 -0.392,0.479 -0.292,0.547 -0.181,0.594 -0.06,0.617 v 33.509 l 0.06,0.616 0.181,0.594 0.292,0.547 0.392,0.479 0.48,0.393 0.547,0.294 0.593,0.178 0.617,0.061 z"
         style="fill:none;stroke:#231f20;stroke-width:0.343;stroke-linecap:round;stroke-linejoin:round;stroke-miterlimit:10;stroke-dasharray:none;stroke-opacity:1"
         id="path1599" />
      <path
         d="m 242.6076,256.2823 0.617,-0.061 0.594,-0.178 0.547,-0.294 0.479,-0.393 0.393,-0.479 0.291,-0.547 0.182,-0.594 0.06,-0.616 v -33.509 l -0.06,-0.617 -0.182,-0.594 -0.291,-0.547 -0.393,-0.479 -0.479,-0.393 -0.547,-0.293 -0.594,-0.179 -0.617,-0.061 h -13.429 l -0.617,0.061 -0.594,0.179 -0.546,0.293 -0.48,0.393 -0.392,0.479 -0.292,0.547 -0.18,0.594 -0.061,0.617 v 33.509 l 0.061,0.616 0.18,0.594 0.292,0.547 0.392,0.479 0.48,0.393 0.546,0.294 0.594,0.178 0.617,0.061 z"
         style="fill:none;stroke:#231f20;stroke-width:0.343;stroke-linecap:round;stroke-linejoin:round;stroke-miterlimit:10;stroke-dasharray:none;stroke-opacity:1"
         id="path1607" />
      <path
         d="m 263.6617,256.2823 0.617,-0.061 0.594,-0.178 0.546,-0.294 0.48,-0.393 0.392,-0.479 0.293,-0.547 0.181,-0.594 0.06,-0.616 v -33.509 l -0.06,-0.617 -0.181,-0.594 -0.293,-0.547 -0.392,-0.479 -0.48,-0.393 -0.546,-0.293 -0.594,-0.179 -0.617,-0.061 h -13.429 l -0.617,0.061 -0.594,0.179 -0.546,0.293 -0.48,0.393 -0.392,0.479 -0.292,0.547 -0.18,0.594 -0.061,0.617 v 33.509 l 0.061,0.616 0.18,0.594 0.292,0.547 0.392,0.479 0.48,0.393 0.546,0.294 0.594,0.178 0.617,0.061 z"
         style="fill:none;stroke:#231f20;stroke-width:0.343;stroke-linecap:round;stroke-linejoin:round;stroke-miterlimit:10;stroke-dasharray:none;stroke-opacity:1"
         id="path1615" />
      <path
         d="m 284.7159,256.2823 0.617,-0.061 0.594,-0.178 0.546,-0.294 0.48,-0.393 0.392,-0.479 0.292,-0.547 0.182,-0.594 0.06,-0.616 v -33.509 l -0.06,-0.617 -0.182,-0.594 -0.292,-0.547 -0.392,-0.479 -0.48,-0.393 -0.546,-0.293 -0.594,-0.179 -0.617,-0.061 h -13.429 l -0.617,0.061 -0.594,0.179 -0.547,0.293 -0.478,0.393 -0.393,0.479 -0.292,0.547 -0.179,0.594 -0.063,0.617 v 33.509 l 0.063,0.616 0.179,0.594 0.292,0.547 0.393,0.479 0.478,0.393 0.547,0.294 0.594,0.178 0.617,0.061 z"
         style="fill:none;stroke:#231f20;stroke-width:0.343;stroke-linecap:round;stroke-linejoin:round;stroke-miterlimit:10;stroke-dasharray:none;stroke-opacity:1"
         id="path1623" />
      <path
         d="m 305.7701,256.2823 0.617,-0.061 0.594,-0.178 0.546,-0.294 0.48,-0.393 0.392,-0.479 0.292,-0.547 0.182,-0.594 0.06,-0.616 v -33.509 l -0.06,-0.617 -0.182,-0.594 -0.292,-0.547 -0.392,-0.479 -0.48,-0.393 -0.546,-0.293 -0.594,-0.179 -0.617,-0.061 h -13.429 l -0.617,0.061 -0.594,0.179 -0.547,0.293 -0.479,0.393 -0.393,0.479 -0.291,0.547 -0.18,0.594 -0.062,0.617 v 33.509 l 0.062,0.616 0.18,0.594 0.291,0.547 0.393,0.479 0.479,0.393 0.547,0.294 0.594,0.178 0.617,0.061 z"
         style="fill:none;stroke:#231f20;stroke-width:0.343;stroke-linecap:round;stroke-linejoin:round;stroke-miterlimit:10;stroke-dasharray:none;stroke-opacity:1"
         id="path1631" />
      <path
         d="m 326.8242,256.2823 0.617,-0.061 0.593,-0.178 0.547,-0.294 0.48,-0.393 0.392,-0.479 0.292,-0.547 0.182,-0.594 0.06,-0.616 v -33.509 l -0.06,-0.617 -0.182,-0.594 -0.292,-0.547 -0.392,-0.479 -0.48,-0.393 -0.547,-0.293 -0.593,-0.179 -0.617,-0.061 h -13.429 l -0.617,0.061 -0.594,0.179 -0.547,0.293 -0.479,0.393 -0.393,0.479 -0.291,0.547 -0.18,0.594 -0.062,0.617 v 33.509 l 0.062,0.616 0.18,0.594 0.291,0.547 0.393,0.479 0.479,0.393 0.547,0.294 0.594,0.178 0.617,0.061 z"
         style="fill:none;stroke:#231f20;stroke-width:0.343;stroke-linecap:round;stroke-linejoin:round;stroke-miterlimit:10;stroke-dasharray:none;stroke-opacity:1"
         id="path1639" />
      <path
         d="m 347.8783,256.2823 0.617,-0.061 0.593,-0.178 0.547,-0.294 0.48,-0.393 0.392,-0.479 0.294,-0.547 0.179,-0.594 0.061,-0.616 v -33.509 l -0.061,-0.617 -0.179,-0.594 -0.294,-0.547 -0.392,-0.479 -0.48,-0.393 -0.547,-0.293 -0.593,-0.179 -0.617,-0.061 h -13.429 l -0.617,0.061 -0.594,0.179 -0.547,0.293 -0.478,0.393 -0.394,0.479 -0.291,0.547 -0.18,0.594 -0.062,0.617 v 33.509 l 0.062,0.616 0.18,0.594 0.291,0.547 0.394,0.479 0.478,0.393 0.547,0.294 0.594,0.178 0.617,0.061 z"
         style="fill:none;stroke:#231f20;stroke-width:0.343;stroke-linecap:round;stroke-linejoin:round;stroke-miterlimit:10;stroke-dasharray:none;stroke-opacity:1"
         id="path1647" />
      <path
         d="m 368.932,256.2823 0.617,-0.061 0.594,-0.178 0.547,-0.294 0.479,-0.393 0.393,-0.479 0.293,-0.547 0.18,-0.594 0.06,-0.616 v -33.509 l -0.06,-0.617 -0.18,-0.594 -0.293,-0.547 -0.393,-0.479 -0.479,-0.393 -0.547,-0.293 -0.594,-0.179 -0.617,-0.061 h -13.429 l -0.617,0.061 -0.593,0.179 -0.547,0.293 -0.478,0.393 -0.394,0.479 -0.292,0.547 -0.179,0.594 -0.061,0.617 v 33.509 l 0.061,0.616 0.179,0.594 0.292,0.547 0.394,0.479 0.478,0.393 0.547,0.294 0.593,0.178 0.617,0.061 z"
         style="fill:none;stroke:#231f20;stroke-width:0.343;stroke-linecap:round;stroke-linejoin:round;stroke-miterlimit:10;stroke-dasharray:none;stroke-opacity:1"
         id="path1655" />
      <path
         d="m 389.9881,256.2823 0.617,-0.061 0.592,-0.178 0.547,-0.294 0.479,-0.393 0.394,-0.479 0.292,-0.547 0.18,-0.594 0.06,-0.616 v -33.509 l -0.06,-0.617 -0.18,-0.594 -0.292,-0.547 -0.394,-0.479 -0.479,-0.393 -0.547,-0.293 -0.592,-0.179 -0.617,-0.061 h -13.431 l -0.617,0.061 -0.594,0.179 -0.546,0.293 -0.478,0.393 -0.394,0.479 -0.292,0.547 -0.179,0.594 -0.061,0.617 v 33.509 l 0.061,0.616 0.179,0.594 0.292,0.547 0.394,0.479 0.478,0.393 0.546,0.294 0.594,0.178 0.617,0.061 z"
         style="fill:none;stroke:#231f20;stroke-width:0.343;stroke-linecap:round;stroke-linejoin:round;stroke-miterlimit:10;stroke-dasharray:none;stroke-opacity:1"
         id="path1663" />
      <path
         d="m 411.0423,256.2823 0.617,-0.061 0.592,-0.178 0.547,-0.294 0.479,-0.393 0.394,-0.479 0.292,-0.547 0.18,-0.594 0.06,-0.616 v -33.509 l -0.06,-0.617 -0.18,-0.594 -0.292,-0.547 -0.394,-0.479 -0.479,-0.393 -0.547,-0.293 -0.592,-0.179 -0.617,-0.061 h -13.431 l -0.617,0.061 -0.594,0.179 -0.546,0.293 -0.478,0.393 -0.394,0.479 -0.292,0.547 -0.179,0.594 -0.061,0.617 v 33.509 l 0.061,0.616 0.179,0.594 0.292,0.547 0.394,0.479 0.478,0.393 0.546,0.294 0.594,0.178 0.617,0.061 z"
         style="fill:none;stroke:#231f20;stroke-width:0.343;stroke-linecap:round;stroke-linejoin:round;stroke-miterlimit:10;stroke-dasharray:none;stroke-opacity:1"
         id="path1671" />
      <path
         d="m 432.0964,256.2823 0.617,-0.061 0.594,-0.178 0.547,-0.294 0.477,-0.393 0.394,-0.479 0.292,-0.547 0.18,-0.594 0.06,-0.616 v -33.509 l -0.06,-0.617 -0.18,-0.594 -0.292,-0.547 -0.394,-0.479 -0.477,-0.393 -0.547,-0.293 -0.594,-0.179 -0.617,-0.061 h -13.431 l -0.617,0.061 -0.592,0.179 -0.547,0.293 -0.479,0.393 -0.394,0.479 -0.292,0.547 -0.179,0.594 -0.061,0.617 v 33.509 l 0.061,0.616 0.179,0.594 0.292,0.547 0.394,0.479 0.479,0.393 0.547,0.294 0.592,0.178 0.617,0.061 z"
         style="fill:none;stroke:#231f20;stroke-width:0.343;stroke-linecap:round;stroke-linejoin:round;stroke-miterlimit:10;stroke-dasharray:none;stroke-opacity:1"
         id="path1679" />
      <path
         d="m 168.9184,299.4854 0.617,-0.06 0.594,-0.179 0.547,-0.292 0.478,-0.394 0.394,-0.478 0.291,-0.547 0.18,-0.594 0.061,-0.617 v -33.51 l -0.061,-0.617 -0.18,-0.594 -0.291,-0.547 -0.394,-0.479 -0.478,-0.393 -0.547,-0.291 -0.594,-0.181 -0.617,-0.061 h -13.429 l -0.617,0.061 -0.594,0.181 -0.546,0.291 -0.48,0.393 -0.392,0.479 -0.294,0.547 -0.179,0.594 -0.06,0.617 v 33.51 l 0.06,0.617 0.179,0.594 0.294,0.547 0.392,0.478 0.48,0.394 0.546,0.292 0.594,0.179 0.617,0.06 z"
         style="fill:none;stroke:#231f20;stroke-width:0.343;stroke-linecap:round;stroke-linejoin:round;stroke-miterlimit:10;stroke-dasharray:none;stroke-opacity:1"
         id="path1687" />
      <path
         d="m 211.0266,299.4854 0.617,-0.06 0.594,-0.179 0.546,-0.292 0.48,-0.394 0.392,-0.478 0.292,-0.547 0.181,-0.594 0.061,-0.617 v -33.51 l -0.061,-0.617 -0.181,-0.594 -0.292,-0.547 -0.392,-0.479 -0.48,-0.393 -0.546,-0.291 -0.594,-0.181 -0.617,-0.061 h -13.429 l -0.617,0.061 -0.594,0.181 -0.546,0.291 -0.48,0.393 -0.392,0.479 -0.292,0.547 -0.181,0.594 -0.061,0.617 v 33.51 l 0.061,0.617 0.181,0.594 0.292,0.547 0.392,0.478 0.48,0.394 0.546,0.292 0.594,0.179 0.617,0.06 z"
         style="fill:none;stroke:#231f20;stroke-width:0.343;stroke-linecap:round;stroke-linejoin:round;stroke-miterlimit:10;stroke-dasharray:none;stroke-opacity:1"
         id="path1695" />
      <path
         d="m 232.0808,299.4854 0.617,-0.06 0.594,-0.179 0.546,-0.292 0.48,-0.394 0.392,-0.478 0.292,-0.547 0.182,-0.594 0.06,-0.617 v -33.51 l -0.06,-0.617 -0.182,-0.594 -0.292,-0.547 -0.392,-0.479 -0.48,-0.393 -0.546,-0.291 -0.594,-0.181 -0.617,-0.061 h -13.429 l -0.617,0.061 -0.594,0.181 -0.547,0.291 -0.479,0.393 -0.393,0.479 -0.291,0.547 -0.181,0.594 -0.061,0.617 v 33.51 l 0.061,0.617 0.181,0.594 0.291,0.547 0.393,0.478 0.479,0.394 0.547,0.292 0.594,0.179 0.617,0.06 z"
         style="fill:none;stroke:#231f20;stroke-width:0.343;stroke-linecap:round;stroke-linejoin:round;stroke-miterlimit:10;stroke-dasharray:none;stroke-opacity:1"
         id="path1703" />
      <path
         d="m 253.1349,299.4854 0.617,-0.06 0.593,-0.179 0.547,-0.292 0.48,-0.394 0.392,-0.478 0.292,-0.547 0.182,-0.594 0.06,-0.617 v -33.51 l -0.06,-0.617 -0.182,-0.594 -0.292,-0.547 -0.392,-0.479 -0.48,-0.393 -0.547,-0.291 -0.593,-0.181 -0.617,-0.061 h -13.429 l -0.617,0.061 -0.594,0.181 -0.547,0.291 -0.479,0.393 -0.393,0.479 -0.291,0.547 -0.181,0.594 -0.061,0.617 v 33.51 l 0.061,0.617 0.181,0.594 0.291,0.547 0.393,0.478 0.479,0.394 0.547,0.292 0.594,0.179 0.617,0.06 z"
         style="fill:none;stroke:#231f20;stroke-width:0.343;stroke-linecap:round;stroke-linejoin:round;stroke-miterlimit:10;stroke-dasharray:none;stroke-opacity:1"
         id="path1711" />
      <path
         d="m 295.2427,299.4854 0.617,-0.06 0.594,-0.179 0.547,-0.292 0.479,-0.394 0.393,-0.478 0.291,-0.547 0.182,-0.594 0.06,-0.617 v -33.51 l -0.06,-0.617 -0.182,-0.594 -0.291,-0.547 -0.393,-0.479 -0.479,-0.393 -0.547,-0.291 -0.594,-0.181 -0.617,-0.061 h -13.429 l -0.617,0.061 -0.593,0.181 -0.547,0.291 -0.48,0.393 -0.392,0.479 -0.292,0.547 -0.18,0.594 -0.06,0.617 v 33.51 l 0.06,0.617 0.18,0.594 0.292,0.547 0.392,0.478 0.48,0.394 0.547,0.292 0.593,0.179 0.617,0.06 z"
         style="fill:none;stroke:#231f20;stroke-width:0.343;stroke-linecap:round;stroke-linejoin:round;stroke-miterlimit:10;stroke-dasharray:none;stroke-opacity:1"
         id="path1719" />
      <path
         d="m 316.2969,299.4854 0.617,-0.06 0.594,-0.179 0.547,-0.292 0.479,-0.394 0.393,-0.478 0.291,-0.547 0.182,-0.594 0.06,-0.617 v -33.51 l -0.06,-0.617 -0.182,-0.594 -0.291,-0.547 -0.393,-0.479 -0.479,-0.393 -0.547,-0.291 -0.594,-0.181 -0.617,-0.061 h -13.429 l -0.617,0.061 -0.594,0.181 -0.546,0.291 -0.48,0.393 -0.392,0.479 -0.292,0.547 -0.179,0.594 -0.062,0.617 v 33.51 l 0.062,0.617 0.179,0.594 0.292,0.547 0.392,0.478 0.48,0.394 0.546,0.292 0.594,0.179 0.617,0.06 z"
         style="fill:none;stroke:#231f20;stroke-width:0.343;stroke-linecap:round;stroke-linejoin:round;stroke-miterlimit:10;stroke-dasharray:none;stroke-opacity:1"
         id="path1727" />
      <path
         d="m 358.4052,299.4854 0.617,-0.06 0.594,-0.179 0.546,-0.292 0.48,-0.394 0.392,-0.478 0.294,-0.547 0.18,-0.594 0.06,-0.617 v -33.51 l -0.06,-0.617 -0.18,-0.594 -0.294,-0.547 -0.392,-0.479 -0.48,-0.393 -0.546,-0.291 -0.594,-0.181 -0.617,-0.061 h -13.429 l -0.617,0.061 -0.594,0.181 -0.546,0.291 -0.478,0.393 -0.394,0.479 -0.292,0.547 -0.18,0.594 -0.062,0.617 v 33.51 l 0.062,0.617 0.18,0.594 0.292,0.547 0.394,0.478 0.478,0.394 0.546,0.292 0.594,0.179 0.617,0.06 z"
         style="fill:none;stroke:#231f20;stroke-width:0.343;stroke-linecap:round;stroke-linejoin:round;stroke-miterlimit:10;stroke-dasharray:none;stroke-opacity:1"
         id="path1735" />
      <path
         d="m 379.4608,299.4854 0.617,-0.06 0.592,-0.179 0.547,-0.292 0.48,-0.394 0.392,-0.478 0.293,-0.547 0.18,-0.594 0.06,-0.617 v -33.51 l -0.06,-0.617 -0.18,-0.594 -0.293,-0.547 -0.392,-0.479 -0.48,-0.393 -0.547,-0.291 -0.592,-0.181 -0.617,-0.061 h -13.43 l -0.617,0.061 -0.594,0.181 -0.547,0.291 -0.478,0.393 -0.394,0.479 -0.292,0.547 -0.179,0.594 -0.06,0.617 v 33.51 l 0.06,0.617 0.179,0.594 0.292,0.547 0.394,0.478 0.478,0.394 0.547,0.292 0.594,0.179 0.617,0.06 z"
         style="fill:none;stroke:#231f20;stroke-width:0.343;stroke-linecap:round;stroke-linejoin:round;stroke-miterlimit:10;stroke-dasharray:none;stroke-opacity:1"
         id="path1743" />
      <path
         d="m 400.5149,299.4854 0.617,-0.06 0.592,-0.179 0.547,-0.292 0.479,-0.394 0.395,-0.478 0.291,-0.547 0.18,-0.594 0.06,-0.617 v -33.51 l -0.06,-0.617 -0.18,-0.594 -0.291,-0.547 -0.395,-0.479 -0.479,-0.393 -0.547,-0.291 -0.592,-0.181 -0.617,-0.061 h -13.43 l -0.617,0.061 -0.594,0.181 -0.547,0.291 -0.478,0.393 -0.394,0.479 -0.292,0.547 -0.179,0.594 -0.06,0.617 v 33.51 l 0.06,0.617 0.179,0.594 0.292,0.547 0.394,0.478 0.478,0.394 0.547,0.292 0.594,0.179 0.617,0.06 z"
         style="fill:none;stroke:#231f20;stroke-width:0.343;stroke-linecap:round;stroke-linejoin:round;stroke-miterlimit:10;stroke-dasharray:none;stroke-opacity:1"
         id="path1751" />
      <path
         d="m 137.3374,256.2823 0.617,-0.061 0.594,-0.178 0.546,-0.294 0.478,-0.393 0.394,-0.479 0.292,-0.547 0.18,-0.594 0.06,-0.616 v -33.509 l -0.06,-0.617 -0.18,-0.594 -0.292,-0.547 -0.394,-0.479 -0.478,-0.393 -0.546,-0.293 -0.594,-0.179 -0.617,-0.061 h -13.43 l -0.617,0.061 -0.593,0.179 -0.547,0.293 -0.479,0.393 -0.393,0.479 -0.293,0.547 -0.179,0.594 -0.061,0.617 v 33.509 l 0.061,0.616 0.179,0.594 0.293,0.547 0.393,0.479 0.479,0.393 0.547,0.294 0.593,0.178 0.617,0.061 z"
         style="fill:none;stroke:#231f20;stroke-width:0.343;stroke-linecap:round;stroke-linejoin:round;stroke-miterlimit:10;stroke-dasharray:none;stroke-opacity:1"
         id="path1759" />
      <path
         d="m 158.3915,256.2823 0.617,-0.061 0.594,-0.178 0.546,-0.294 0.478,-0.393 0.394,-0.479 0.292,-0.547 0.18,-0.594 0.061,-0.616 v -33.509 l -0.061,-0.617 -0.18,-0.594 -0.292,-0.547 -0.394,-0.479 -0.478,-0.393 -0.546,-0.293 -0.594,-0.179 -0.617,-0.061 h -13.43 l -0.617,0.061 -0.593,0.179 -0.547,0.293 -0.479,0.393 -0.393,0.479 -0.293,0.547 -0.179,0.594 -0.061,0.617 v 33.509 l 0.061,0.616 0.179,0.594 0.293,0.547 0.393,0.479 0.479,0.393 0.547,0.294 0.593,0.178 0.617,0.061 z"
         style="fill:none;stroke:#231f20;stroke-width:0.343;stroke-linecap:round;stroke-linejoin:round;stroke-miterlimit:10;stroke-dasharray:none;stroke-opacity:1"
         id="path1767" />
      <path
         d="m 168.9184,299.4854 0.617,-0.06 0.594,-0.179 0.547,-0.292 0.478,-0.394 0.394,-0.478 0.291,-0.547 0.18,-0.594 0.061,-0.617 v -33.51 l -0.061,-0.617 -0.18,-0.594 -0.291,-0.547 -0.394,-0.479 -0.478,-0.393 -0.547,-0.291 -0.594,-0.181 -0.617,-0.061 h -13.429 l -0.617,0.061 -0.594,0.181 -0.546,0.291 -0.48,0.393 -0.392,0.479 -0.294,0.547 -0.179,0.594 -0.06,0.617 v 33.51 l 0.06,0.617 0.179,0.594 0.294,0.547 0.392,0.478 0.48,0.394 0.546,0.292 0.594,0.179 0.617,0.06 z"
         style="fill:none;stroke:#231f20;stroke-width:0.34321622;stroke-linecap:round;stroke-linejoin:round;stroke-miterlimit:10;stroke-dasharray:none;stroke-opacity:1"
         id="path1775" />
    </g>
    <g
       id="g5194"
       inkscape:label="buttons right"
       transform="matrix(0.81872587,0,0,-0.81872587,-92.988336,314.27513)">
      <path
         d="m 344.5725,308.4125 -0.04,-0.405 -0.118,-0.386 -0.191,-0.359 -0.258,-0.312 -0.313,-0.258 -0.358,-0.191 -0.387,-0.117 -0.404,-0.041 h -9.859 l -0.404,0.041 -0.387,0.117 -0.358,0.191 -0.313,0.258 -0.258,0.312 -0.191,0.359 -0.118,0.386 -0.04,0.405 v 3.773 l 0.04,0.403 0.118,0.389 0.191,0.356 0.258,0.315 0.313,0.256 0.358,0.192 0.387,0.117 0.404,0.041 h 9.859 l 0.404,-0.041 0.387,-0.117 0.358,-0.192 0.313,-0.256 0.258,-0.315 0.191,-0.356 0.118,-0.389 0.04,-0.403 z"
         style="fill:none;stroke:#231f20;stroke-width:0.343;stroke-linecap:round;stroke-linejoin:round;stroke-miterlimit:10;stroke-dasharray:none;stroke-opacity:1"
         id="path1351" />
      <path
         d="m 361.8531,308.4125 -0.04,-0.405 -0.117,-0.386 -0.192,-0.359 -0.256,-0.312 -0.314,-0.258 -0.357,-0.191 -0.389,-0.117 -0.402,-0.041 h -9.861 l -0.402,0.041 -0.389,0.117 -0.357,0.191 -0.314,0.258 -0.257,0.312 -0.191,0.359 -0.117,0.386 -0.041,0.405 v 3.773 l 0.041,0.403 0.117,0.389 0.191,0.356 0.257,0.315 0.314,0.256 0.357,0.192 0.389,0.117 0.402,0.041 h 9.861 l 0.402,-0.041 0.389,-0.117 0.357,-0.192 0.314,-0.256 0.256,-0.315 0.192,-0.356 0.117,-0.389 0.04,-0.403 z"
         style="fill:none;stroke:#231f20;stroke-width:0.343;stroke-linecap:round;stroke-linejoin:round;stroke-miterlimit:10;stroke-dasharray:none;stroke-opacity:1"
         id="path1359" />
      <path
         d="m 379.1356,308.4125 -0.04,-0.405 -0.118,-0.386 -0.191,-0.359 -0.258,-0.312 -0.313,-0.258 -0.358,-0.191 -0.387,-0.117 -0.404,-0.041 h -9.859 l -0.404,0.041 -0.387,0.117 -0.358,0.191 -0.313,0.258 -0.258,0.312 -0.192,0.359 -0.117,0.386 -0.04,0.405 v 3.773 l 0.04,0.403 0.117,0.389 0.192,0.356 0.258,0.315 0.313,0.256 0.358,0.192 0.387,0.117 0.404,0.041 h 9.859 l 0.404,-0.041 0.387,-0.117 0.358,-0.192 0.313,-0.256 0.258,-0.315 0.191,-0.356 0.118,-0.389 0.04,-0.403 z"
         style="fill:none;stroke:#231f20;stroke-width:0.343;stroke-linecap:round;stroke-linejoin:round;stroke-miterlimit:10;stroke-dasharray:none;stroke-opacity:1"
         id="path1367" />
      <path
         d="m 404.3271,308.4125 -0.041,-0.405 -0.117,-0.386 -0.191,-0.359 -0.256,-0.312 -0.314,-0.258 -0.357,-0.191 -0.39,-0.117 -0.402,-0.041 h -9.86 l -0.403,0.041 -0.388,0.117 -0.358,0.191 -0.313,0.258 -0.257,0.312 -0.191,0.359 -0.119,0.386 -0.039,0.405 v 3.773 l 0.039,0.403 0.119,0.389 0.191,0.356 0.257,0.315 0.313,0.256 0.358,0.192 0.388,0.117 0.403,0.041 h 9.86 l 0.402,-0.041 0.39,-0.117 0.357,-0.192 0.314,-0.256 0.256,-0.315 0.191,-0.356 0.117,-0.389 0.041,-0.403 z"
         style="fill:none;stroke:#231f20;stroke-width:0.343;stroke-linecap:round;stroke-linejoin:round;stroke-miterlimit:10;stroke-dasharray:none;stroke-opacity:1"
         id="path1375" />
      <path
         d="m 421.6076,308.4125 -0.039,-0.405 -0.117,-0.386 -0.191,-0.359 -0.258,-0.312 -0.314,-0.258 -0.357,-0.191 -0.388,-0.117 -0.404,-0.041 h -9.858 l -0.404,0.041 -0.388,0.117 -0.359,0.191 -0.312,0.258 -0.258,0.312 -0.191,0.359 -0.118,0.386 -0.04,0.405 v 3.773 l 0.04,0.403 0.118,0.389 0.191,0.356 0.258,0.315 0.312,0.256 0.359,0.192 0.388,0.117 0.404,0.041 h 9.858 l 0.404,-0.041 0.388,-0.117 0.357,-0.192 0.314,-0.256 0.258,-0.315 0.191,-0.356 0.117,-0.389 0.039,-0.403 z"
         style="fill:none;stroke:#231f20;stroke-width:0.343;stroke-linecap:round;stroke-linejoin:round;stroke-miterlimit:10;stroke-dasharray:none;stroke-opacity:1"
         id="path1383" />
      <path
         d="m 438.8897,308.4125 -0.041,-0.405 -0.117,-0.386 -0.192,-0.359 -0.254,-0.312 -0.316,-0.258 -0.355,-0.191 -0.389,-0.117 -0.402,-0.041 h -9.862 l -0.402,0.041 -0.39,0.117 -0.356,0.191 -0.314,0.258 -0.257,0.312 -0.191,0.359 -0.119,0.386 -0.038,0.405 v 3.773 l 0.038,0.403 0.119,0.389 0.191,0.356 0.257,0.315 0.314,0.256 0.356,0.192 0.39,0.117 0.402,0.041 h 9.862 l 0.402,-0.041 0.389,-0.117 0.355,-0.192 0.316,-0.256 0.254,-0.315 0.192,-0.356 0.117,-0.389 0.041,-0.403 z"
         style="fill:none;stroke:#231f20;stroke-width:0.343;stroke-linecap:round;stroke-linejoin:round;stroke-miterlimit:10;stroke-dasharray:none;stroke-opacity:1"
         id="path1391" />
    </g>
    <g
       id="g5222"
       inkscape:label="trigger pads"
       transform="matrix(0.81872587,0,0,-0.81872587,-92.988336,314.27513)">
      <path
         d="m 332.402,351.0677 -0.357,0.037 -0.342,0.103 -0.316,0.169 -0.277,0.226 -0.226,0.277 -0.169,0.315 -0.104,0.342 -0.035,0.355 v 20.693 l 0.035,0.355 0.104,0.342 0.169,0.315 0.226,0.277 0.277,0.227 0.316,0.169 0.342,0.104 0.357,0.035 h 20.688 l 0.358,-0.035 0.342,-0.104 0.315,-0.169 0.277,-0.227 0.226,-0.277 0.17,-0.315 0.104,-0.342 0.035,-0.355 v -20.693 l -0.035,-0.355 -0.104,-0.342 -0.17,-0.315 -0.226,-0.277 -0.277,-0.226 -0.315,-0.169 -0.342,-0.103 -0.358,-0.037 z"
         style="fill:none;stroke:#231f20;stroke-width:0.343;stroke-linecap:round;stroke-linejoin:round;stroke-miterlimit:10;stroke-dasharray:none;stroke-opacity:1"
         id="path1791"
         inkscape:label="trigger pad 1" />
      <path
         d="m 332.402,323.0772 -0.357,0.035 -0.342,0.103 -0.316,0.171 -0.277,0.224 -0.226,0.279 -0.169,0.315 -0.104,0.342 -0.035,0.356 v 20.69 l 0.035,0.357 0.104,0.342 0.169,0.315 0.226,0.276 0.277,0.227 0.316,0.168 0.342,0.105 0.357,0.036 h 20.688 l 0.358,-0.036 0.342,-0.105 0.315,-0.168 0.277,-0.227 0.226,-0.276 0.17,-0.315 0.104,-0.342 0.035,-0.357 v -20.69 l -0.035,-0.356 -0.104,-0.342 -0.17,-0.315 -0.226,-0.279 -0.277,-0.224 -0.315,-0.171 -0.342,-0.103 -0.358,-0.035 z"
         style="fill:none;stroke:#231f20;stroke-width:0.343;stroke-linecap:round;stroke-linejoin:round;stroke-miterlimit:10;stroke-dasharray:none;stroke-opacity:1"
         id="path1799"
         inkscape:label="trigger pad 5" />
      <path
         d="m 360.3925,351.0677 -0.355,0.037 -0.343,0.103 -0.317,0.169 -0.275,0.226 -0.228,0.277 -0.168,0.315 -0.104,0.342 -0.035,0.355 v 20.693 l 0.035,0.355 0.104,0.342 0.168,0.315 0.228,0.277 0.275,0.227 0.317,0.169 0.343,0.104 0.355,0.035 h 20.69 l 0.356,-0.035 0.342,-0.104 0.317,-0.169 0.275,-0.227 0.228,-0.277 0.168,-0.315 0.104,-0.342 0.035,-0.355 v -20.693 l -0.035,-0.355 -0.104,-0.342 -0.168,-0.315 -0.228,-0.277 -0.275,-0.226 -0.317,-0.169 -0.342,-0.103 -0.356,-0.037 z"
         style="fill:none;stroke:#231f20;stroke-width:0.343;stroke-linecap:round;stroke-linejoin:round;stroke-miterlimit:10;stroke-dasharray:none;stroke-opacity:1"
         id="path1807"
         inkscape:label="trigger pad 2" />
      <path
         d="m 360.3925,323.0772 -0.355,0.035 -0.343,0.103 -0.317,0.171 -0.275,0.224 -0.228,0.279 -0.168,0.315 -0.104,0.342 -0.035,0.356 v 20.69 l 0.035,0.357 0.104,0.342 0.168,0.315 0.228,0.276 0.275,0.227 0.317,0.168 0.343,0.105 0.355,0.036 h 20.69 l 0.356,-0.036 0.342,-0.105 0.317,-0.168 0.275,-0.227 0.228,-0.276 0.168,-0.315 0.104,-0.342 0.035,-0.357 v -20.69 l -0.035,-0.356 -0.104,-0.342 -0.168,-0.315 -0.228,-0.279 -0.275,-0.224 -0.317,-0.171 -0.342,-0.103 -0.356,-0.035 z"
         style="fill:none;stroke:#231f20;stroke-width:0.343;stroke-linecap:round;stroke-linejoin:round;stroke-miterlimit:10;stroke-dasharray:none;stroke-opacity:1"
         id="path1815"
         inkscape:label="trigger pad 6" />
      <path
         d="m 388.3845,351.0677 -0.357,0.037 -0.342,0.103 -0.316,0.169 -0.276,0.226 -0.227,0.277 -0.169,0.315 -0.104,0.342 -0.035,0.355 v 20.693 l 0.035,0.355 0.104,0.342 0.169,0.315 0.227,0.277 0.276,0.227 0.316,0.169 0.342,0.104 0.357,0.035 h 20.688 l 0.358,-0.035 0.342,-0.104 0.315,-0.169 0.277,-0.227 0.227,-0.277 0.169,-0.315 0.104,-0.342 0.035,-0.355 v -20.693 l -0.035,-0.355 -0.104,-0.342 -0.169,-0.315 -0.227,-0.277 -0.277,-0.226 -0.315,-0.169 -0.342,-0.103 -0.358,-0.037 z"
         style="fill:none;stroke:#231f20;stroke-width:0.343;stroke-linecap:round;stroke-linejoin:round;stroke-miterlimit:10;stroke-dasharray:none;stroke-opacity:1"
         id="path1823"
         inkscape:label="trigger pad 3" />
      <path
         d="m 388.3845,323.0772 -0.357,0.035 -0.342,0.103 -0.316,0.171 -0.276,0.224 -0.227,0.279 -0.169,0.315 -0.104,0.342 -0.035,0.356 v 20.69 l 0.035,0.357 0.104,0.342 0.169,0.315 0.227,0.276 0.276,0.227 0.316,0.168 0.342,0.105 0.357,0.036 h 20.688 l 0.358,-0.036 0.342,-0.105 0.315,-0.168 0.277,-0.227 0.227,-0.276 0.169,-0.315 0.104,-0.342 0.035,-0.357 v -20.69 l -0.035,-0.356 -0.104,-0.342 -0.169,-0.315 -0.227,-0.279 -0.277,-0.224 -0.315,-0.171 -0.342,-0.103 -0.358,-0.035 z"
         style="fill:none;stroke:#231f20;stroke-width:0.343;stroke-linecap:round;stroke-linejoin:round;stroke-miterlimit:10;stroke-dasharray:none;stroke-opacity:1"
         id="path1831"
         inkscape:label="trigger pad 7" />
      <path
         d="m 416.375,351.0677 -0.355,0.037 -0.344,0.103 -0.316,0.169 -0.276,0.226 -0.227,0.277 -0.169,0.315 -0.104,0.342 -0.033,0.355 v 20.693 l 0.033,0.355 0.104,0.342 0.169,0.315 0.227,0.277 0.276,0.227 0.316,0.169 0.344,0.104 0.355,0.035 h 20.689 l 0.356,-0.035 0.343,-0.104 0.314,-0.169 0.279,-0.227 0.228,-0.277 0.167,-0.315 0.104,-0.342 0.035,-0.355 v -20.693 l -0.035,-0.355 -0.104,-0.342 -0.167,-0.315 -0.228,-0.277 -0.279,-0.226 -0.314,-0.169 -0.343,-0.103 -0.356,-0.037 z"
         style="fill:none;stroke:#231f20;stroke-width:0.343;stroke-linecap:round;stroke-linejoin:round;stroke-miterlimit:10;stroke-dasharray:none;stroke-opacity:1"
         id="path1839"
         inkscape:label="trigger pad 4" />
      <path
         d="m 416.375,323.0772 -0.355,0.035 -0.344,0.103 -0.316,0.171 -0.276,0.224 -0.227,0.279 -0.169,0.315 -0.104,0.342 -0.033,0.356 v 20.69 l 0.033,0.357 0.104,0.342 0.169,0.315 0.227,0.276 0.276,0.227 0.316,0.168 0.344,0.105 0.355,0.036 h 20.689 l 0.356,-0.036 0.343,-0.105 0.314,-0.168 0.279,-0.227 0.228,-0.276 0.167,-0.315 0.104,-0.342 0.035,-0.357 v -20.69 l -0.035,-0.356 -0.104,-0.342 -0.167,-0.315 -0.228,-0.279 -0.279,-0.224 -0.314,-0.171 -0.343,-0.103 -0.356,-0.035 z"
         style="fill:none;stroke:#231f20;stroke-width:0.343;stroke-linecap:round;stroke-linejoin:round;stroke-miterlimit:10;stroke-dasharray:none;stroke-opacity:1"
         id="path1847"
         inkscape:label="trigger pad 8" />
    </g>
    <path
       d="M 99.744728,53.079308 V 7.9863434 c 0,-1.493356 0.573112,-2.9334948 1.599792,-4.0191253 1.10528,-1.1683218 2.64285,-1.8314898 4.25164,-1.8314898 h 58.04603 c 1.60716,0 3.14554,0.663168 4.25082,1.8314898 1.0275,1.0856305 1.59979,2.5257693 1.59979,4.0191253 V 53.079308 c 0,1.494994 -0.57229,2.932676 -1.59979,4.018307 -1.10528,1.170778 -2.64366,1.832308 -4.25082,1.832308 h -58.04603 c -1.60879,0 -3.14636,-0.66153 -4.25164,-1.832308 -1.02668,-1.085631 -1.599792,-2.523313 -1.599792,-4.018307 z"
       style="fill:none;stroke:#231f20;stroke-width:0.280823;stroke-linecap:round;stroke-linejoin:round;stroke-miterlimit:10;stroke-dasharray:none;stroke-opacity:1"
       id="path1779"
       inkscape:label="X-Y pad" />
    <g
       id="g5208"
       inkscape:label="buttons left"
       transform="matrix(0.81872587,0,0,-0.81872587,-92.988336,314.27513)">
      <path
         d="m 131.1086,308.4125 -0.039,-0.405 -0.118,-0.386 -0.191,-0.359 -0.257,-0.312 -0.314,-0.258 -0.357,-0.191 -0.388,-0.117 -0.404,-0.041 h -9.858 l -0.404,0.041 -0.388,0.117 -0.359,0.191 -0.312,0.258 -0.258,0.312 -0.191,0.359 -0.117,0.386 -0.041,0.405 v 3.773 l 0.041,0.403 0.117,0.389 0.191,0.356 0.258,0.315 0.312,0.256 0.359,0.192 0.388,0.117 0.404,0.041 h 9.858 l 0.404,-0.041 0.388,-0.117 0.357,-0.192 0.314,-0.256 0.257,-0.315 0.191,-0.356 0.118,-0.389 0.039,-0.403 z"
         style="fill:none;stroke:#231f20;stroke-width:0.343;stroke-linecap:round;stroke-linejoin:round;stroke-miterlimit:10;stroke-dasharray:none;stroke-opacity:1"
         id="path1303" />
      <path
         d="m 148.3911,308.4125 -0.041,-0.405 -0.117,-0.386 -0.191,-0.359 -0.256,-0.312 -0.314,-0.258 -0.358,-0.191 -0.389,-0.117 -0.403,-0.041 h -9.859 l -0.403,0.041 -0.388,0.117 -0.358,0.191 -0.313,0.258 -0.257,0.312 -0.191,0.359 -0.119,0.386 -0.039,0.405 v 3.773 l 0.039,0.403 0.119,0.389 0.191,0.356 0.257,0.315 0.313,0.256 0.358,0.192 0.388,0.117 0.403,0.041 h 9.859 l 0.403,-0.041 0.389,-0.117 0.358,-0.192 0.314,-0.256 0.256,-0.315 0.191,-0.356 0.117,-0.389 0.041,-0.403 z"
         style="fill:none;stroke:#231f20;stroke-width:0.343;stroke-linecap:round;stroke-linejoin:round;stroke-miterlimit:10;stroke-dasharray:none;stroke-opacity:1"
         id="path1311" />
      <path
         d="m 165.6716,308.4125 -0.039,-0.405 -0.118,-0.386 -0.19,-0.359 -0.258,-0.312 -0.314,-0.258 -0.357,-0.191 -0.388,-0.117 -0.404,-0.041 h -9.858 l -0.404,0.041 -0.388,0.117 -0.359,0.191 -0.312,0.258 -0.258,0.312 -0.191,0.359 -0.117,0.386 -0.041,0.405 v 3.773 l 0.041,0.403 0.117,0.389 0.191,0.356 0.258,0.315 0.312,0.256 0.359,0.192 0.388,0.117 0.404,0.041 h 9.858 l 0.404,-0.041 0.388,-0.117 0.357,-0.192 0.314,-0.256 0.258,-0.315 0.19,-0.356 0.118,-0.389 0.039,-0.403 z"
         style="fill:none;stroke:#231f20;stroke-width:0.343;stroke-linecap:round;stroke-linejoin:round;stroke-miterlimit:10;stroke-dasharray:none;stroke-opacity:1"
         id="path1319" />
      <path
         d="m 190.8646,308.4125 -0.04,-0.405 -0.118,-0.386 -0.191,-0.359 -0.257,-0.312 -0.313,-0.258 -0.359,-0.191 -0.387,-0.117 -0.404,-0.041 h -9.859 l -0.404,0.041 -0.387,0.117 -0.358,0.191 -0.313,0.258 -0.258,0.312 -0.191,0.359 -0.118,0.386 -0.039,0.405 v 3.773 l 0.039,0.403 0.118,0.389 0.191,0.356 0.258,0.315 0.313,0.256 0.358,0.192 0.387,0.117 0.404,0.041 h 9.859 l 0.404,-0.041 0.387,-0.117 0.359,-0.192 0.313,-0.256 0.257,-0.315 0.191,-0.356 0.118,-0.389 0.04,-0.403 z"
         style="fill:none;stroke:#231f20;stroke-width:0.343;stroke-linecap:round;stroke-linejoin:round;stroke-miterlimit:10;stroke-dasharray:none;stroke-opacity:1"
         id="path1327" />
      <path
         d="m 208.1452,308.4125 -0.038,-0.405 -0.119,-0.386 -0.192,-0.359 -0.256,-0.312 -0.314,-0.258 -0.357,-0.191 -0.388,-0.117 -0.403,-0.041 h -9.86 l -0.403,0.041 -0.388,0.117 -0.358,0.191 -0.314,0.258 -0.257,0.312 -0.191,0.359 -0.117,0.386 -0.04,0.405 v 3.773 l 0.04,0.403 0.117,0.389 0.191,0.356 0.257,0.315 0.314,0.256 0.358,0.192 0.388,0.117 0.403,0.041 h 9.86 l 0.403,-0.041 0.388,-0.117 0.357,-0.192 0.314,-0.256 0.256,-0.315 0.192,-0.356 0.119,-0.389 0.038,-0.403 z"
         style="fill:none;stroke:#231f20;stroke-width:0.343;stroke-linecap:round;stroke-linejoin:round;stroke-miterlimit:10;stroke-dasharray:none;stroke-opacity:1"
         id="path1335" />
      <path
         d="m 225.4276,308.4125 -0.04,-0.405 -0.118,-0.386 -0.191,-0.359 -0.257,-0.312 -0.313,-0.258 -0.359,-0.191 -0.387,-0.117 -0.404,-0.041 h -9.859 l -0.404,0.041 -0.387,0.117 -0.358,0.191 -0.313,0.258 -0.258,0.312 -0.191,0.359 -0.118,0.386 -0.039,0.405 v 3.773 l 0.039,0.403 0.118,0.389 0.191,0.356 0.258,0.315 0.313,0.256 0.358,0.192 0.387,0.117 0.404,0.041 h 9.859 l 0.404,-0.041 0.387,-0.117 0.359,-0.192 0.313,-0.256 0.257,-0.315 0.191,-0.356 0.118,-0.389 0.04,-0.403 z"
         style="fill:none;stroke:#231f20;stroke-width:0.343;stroke-linecap:round;stroke-linejoin:round;stroke-miterlimit:10;stroke-dasharray:none;stroke-opacity:1"
         id="path1343" />
    </g>
    <g
       id="g5336"
       inkscape:label="encoders"
       transform="matrix(0.81872587,0,0,-0.81872587,-92.988336,314.27513)">
      <g
         id="g5105"
         inkscape:label="encoder 5">
        <path
           d="m 137.7417,335.2359 c 0,4.706 -3.813,8.52 -8.518,8.52 -4.706,0 -8.52,-3.814 -8.52,-8.52 0,-4.704 3.814,-8.519 8.52,-8.519 4.705,0 8.518,3.815 8.518,8.519 z"
           style="fill:none;stroke:#231f20;stroke-width:0.343;stroke-linecap:round;stroke-linejoin:round;stroke-miterlimit:10;stroke-dasharray:none;stroke-opacity:1"
           id="path1491" />
        <path
           d="m 129.5875,345.5919 c 0,-0.203 -0.163,-0.365 -0.364,-0.365 -0.203,0 -0.365,0.162 -0.365,0.365 0,0.201 0.162,0.364 0.365,0.364 0.201,0 0.364,-0.163 0.364,-0.364"
           style="fill:#231f20;fill-opacity:1;fill-rule:nonzero;stroke:none"
           id="path2577" />
        <path
           d="m 134.4026,344.208 c -0.096,-0.178 -0.317,-0.244 -0.495,-0.15 -0.178,0.095 -0.245,0.316 -0.151,0.495 0.096,0.178 0.316,0.246 0.495,0.15 0.178,-0.096 0.245,-0.315 0.151,-0.495"
           style="fill:#231f20;fill-opacity:1;fill-rule:nonzero;stroke:none"
           id="path2581" />
        <path
           d="m 138.0034,340.7303 c -0.168,-0.114 -0.395,-0.07 -0.507,0.097 -0.112,0.168 -0.069,0.394 0.098,0.507 0.167,0.114 0.394,0.07 0.508,-0.097 0.112,-0.168 0.068,-0.397 -0.099,-0.507"
           style="fill:#231f20;fill-opacity:1;fill-rule:nonzero;stroke:none"
           id="path2585" />
        <path
           d="m 139.5493,335.9655 c -0.201,-0.021 -0.381,0.124 -0.401,0.324 -0.021,0.201 0.124,0.382 0.324,0.403 0.201,0.019 0.381,-0.124 0.402,-0.326 0.021,-0.201 -0.125,-0.38 -0.325,-0.401"
           style="fill:#231f20;fill-opacity:1;fill-rule:nonzero;stroke:none"
           id="path2589" />
        <path
           d="m 138.6772,331.0336 c -0.186,0.077 -0.277,0.288 -0.201,0.476 0.076,0.186 0.288,0.277 0.474,0.202 0.188,-0.076 0.278,-0.289 0.203,-0.477 -0.077,-0.186 -0.288,-0.275 -0.476,-0.201"
           style="fill:#231f20;fill-opacity:1;fill-rule:nonzero;stroke:none"
           id="path2593" />
        <path
           d="m 135.5932,327.0891 c -0.131,0.154 -0.111,0.384 0.044,0.513 0.156,0.131 0.385,0.111 0.515,-0.043 0.129,-0.155 0.109,-0.386 -0.046,-0.516 -0.154,-0.129 -0.384,-0.108 -0.513,0.046"
           style="fill:#231f20;fill-opacity:1;fill-rule:nonzero;stroke:none"
           id="path2597" />
        <path
           d="m 124.6888,344.5527 c 0.094,-0.179 0.027,-0.399 -0.151,-0.495 -0.178,-0.094 -0.399,-0.027 -0.493,0.15 -0.096,0.18 -0.028,0.4 0.151,0.495 0.178,0.096 0.399,0.029 0.493,-0.15"
           style="fill:#231f20;fill-opacity:1;fill-rule:nonzero;stroke:none"
           id="path2601" />
        <path
           d="m 120.8517,341.3339 c 0.166,-0.112 0.211,-0.339 0.097,-0.507 -0.112,-0.167 -0.339,-0.211 -0.506,-0.097 -0.167,0.111 -0.212,0.339 -0.098,0.507 0.113,0.167 0.339,0.211 0.507,0.097"
           style="fill:#231f20;fill-opacity:1;fill-rule:nonzero;stroke:none"
           id="path2605" />
        <path
           d="m 118.9733,336.6921 c 0.201,-0.021 0.346,-0.201 0.325,-0.402 -0.021,-0.201 -0.201,-0.346 -0.401,-0.325 -0.201,0.022 -0.346,0.201 -0.325,0.402 0.02,0.201 0.2,0.345 0.401,0.325"
           style="fill:#231f20;fill-opacity:1;fill-rule:nonzero;stroke:none"
           id="path2609" />
        <path
           d="m 119.4948,331.7114 c 0.187,0.075 0.399,-0.016 0.475,-0.202 0.075,-0.188 -0.015,-0.399 -0.202,-0.476 -0.186,-0.074 -0.398,0.015 -0.474,0.201 -0.075,0.188 0.015,0.401 0.201,0.477"
           style="fill:#231f20;fill-opacity:1;fill-rule:nonzero;stroke:none"
           id="path2613" />
        <path
           d="m 122.2937,327.5589 c 0.129,0.154 0.361,0.174 0.515,0.043 0.154,-0.129 0.174,-0.358 0.045,-0.513 -0.13,-0.154 -0.36,-0.175 -0.515,-0.046 -0.154,0.13 -0.174,0.362 -0.045,0.516"
           style="fill:#231f20;fill-opacity:1;fill-rule:nonzero;stroke:none"
           id="path2617" />
      </g>
      <g
         id="g5081"
         inkscape:label="encoder 6">
        <path
           d="m 166.7678,335.2467 c 0,4.705 -3.814,8.519 -8.519,8.519 -4.706,0 -8.52,-3.814 -8.52,-8.519 0,-4.703 3.814,-8.518 8.52,-8.518 4.705,0 8.519,3.815 8.519,8.518 z"
           style="fill:none;stroke:#231f20;stroke-width:0.343;stroke-linecap:round;stroke-linejoin:round;stroke-miterlimit:10;stroke-dasharray:none;stroke-opacity:1"
           id="path1511" />
        <path
           d="m 158.6137,345.5919 c 0,-0.203 -0.164,-0.365 -0.365,-0.365 -0.201,0 -0.365,0.162 -0.365,0.365 0,0.201 0.164,0.364 0.365,0.364 0.201,0 0.365,-0.163 0.365,-0.364"
           style="fill:#231f20;fill-opacity:1;fill-rule:nonzero;stroke:none"
           id="path2621" />
        <path
           d="m 163.4278,344.208 c -0.096,-0.178 -0.315,-0.244 -0.495,-0.15 -0.178,0.095 -0.245,0.316 -0.151,0.495 0.096,0.178 0.317,0.246 0.495,0.15 0.178,-0.096 0.245,-0.315 0.151,-0.495"
           style="fill:#231f20;fill-opacity:1;fill-rule:nonzero;stroke:none"
           id="path2625" />
        <path
           d="m 167.0286,340.7303 c -0.167,-0.114 -0.394,-0.07 -0.507,0.097 -0.112,0.168 -0.068,0.394 0.099,0.507 0.166,0.114 0.394,0.07 0.507,-0.097 0.112,-0.168 0.068,-0.397 -0.099,-0.507"
           style="fill:#231f20;fill-opacity:1;fill-rule:nonzero;stroke:none"
           id="path2629" />
        <path
           d="m 168.5745,335.9655 c -0.201,-0.021 -0.38,0.124 -0.401,0.324 -0.021,0.201 0.125,0.382 0.325,0.403 0.2,0.019 0.38,-0.124 0.402,-0.326 0.02,-0.201 -0.125,-0.38 -0.326,-0.401"
           style="fill:#231f20;fill-opacity:1;fill-rule:nonzero;stroke:none"
           id="path2633" />
        <path
           d="m 167.7025,331.0336 c -0.186,0.077 -0.276,0.288 -0.201,0.476 0.076,0.186 0.288,0.277 0.474,0.202 0.188,-0.076 0.279,-0.289 0.204,-0.477 -0.076,-0.186 -0.289,-0.275 -0.477,-0.201"
           style="fill:#231f20;fill-opacity:1;fill-rule:nonzero;stroke:none"
           id="path2637" />
        <path
           d="m 164.6183,327.0891 c -0.129,0.154 -0.109,0.384 0.045,0.513 0.155,0.131 0.384,0.111 0.514,-0.043 0.13,-0.155 0.11,-0.386 -0.044,-0.516 -0.155,-0.129 -0.386,-0.108 -0.515,0.046"
           style="fill:#231f20;fill-opacity:1;fill-rule:nonzero;stroke:none"
           id="path2641" />
        <path
           d="m 153.7141,344.5527 c 0.096,-0.179 0.027,-0.399 -0.151,-0.495 -0.178,-0.094 -0.399,-0.027 -0.493,0.15 -0.096,0.18 -0.027,0.4 0.151,0.495 0.178,0.096 0.399,0.029 0.493,-0.15"
           style="fill:#231f20;fill-opacity:1;fill-rule:nonzero;stroke:none"
           id="path2645" />
        <path
           d="m 149.877,341.3339 c 0.167,-0.112 0.211,-0.339 0.099,-0.507 -0.114,-0.167 -0.341,-0.211 -0.508,-0.097 -0.166,0.111 -0.211,0.339 -0.097,0.507 0.112,0.167 0.338,0.211 0.506,0.097"
           style="fill:#231f20;fill-opacity:1;fill-rule:nonzero;stroke:none"
           id="path2649" />
        <path
           d="m 147.9984,336.6921 c 0.201,-0.021 0.346,-0.201 0.326,-0.402 -0.022,-0.201 -0.202,-0.346 -0.401,-0.325 -0.202,0.022 -0.347,0.201 -0.326,0.402 0.021,0.201 0.201,0.345 0.401,0.325"
           style="fill:#231f20;fill-opacity:1;fill-rule:nonzero;stroke:none"
           id="path2653" />
        <path
           d="m 148.52,331.7114 c 0.188,0.075 0.4,-0.016 0.477,-0.202 0.075,-0.188 -0.016,-0.399 -0.204,-0.476 -0.186,-0.074 -0.398,0.015 -0.474,0.201 -0.075,0.188 0.015,0.401 0.201,0.477"
           style="fill:#231f20;fill-opacity:1;fill-rule:nonzero;stroke:none"
           id="path2657" />
        <path
           d="m 151.3194,327.5589 c 0.13,0.154 0.36,0.174 0.515,0.043 0.154,-0.129 0.174,-0.358 0.045,-0.513 -0.13,-0.154 -0.361,-0.175 -0.515,-0.046 -0.154,0.13 -0.174,0.362 -0.045,0.516"
           style="fill:#231f20;fill-opacity:1;fill-rule:nonzero;stroke:none"
           id="path2661" />
      </g>
      <g
         id="g5057"
         inkscape:label="encoder 7">
        <path
           d="m 195.7935,335.2584 c 0,4.703 -3.814,8.517 -8.519,8.517 -4.705,0 -8.52,-3.814 -8.52,-8.517 0,-4.704 3.815,-8.518 8.52,-8.518 4.705,0 8.519,3.814 8.519,8.518 z"
           style="fill:none;stroke:#231f20;stroke-width:0.343;stroke-linecap:round;stroke-linejoin:round;stroke-miterlimit:10;stroke-dasharray:none;stroke-opacity:1"
           id="path1531" />
        <path
           d="m 187.6399,345.5919 c 0,-0.203 -0.165,-0.365 -0.366,-0.365 -0.201,0 -0.365,0.162 -0.365,0.365 0,0.201 0.164,0.364 0.365,0.364 0.201,0 0.366,-0.163 0.366,-0.364"
           style="fill:#231f20;fill-opacity:1;fill-rule:nonzero;stroke:none"
           id="path2665" />
        <path
           d="m 192.4531,344.208 c -0.094,-0.178 -0.315,-0.244 -0.493,-0.15 -0.179,0.095 -0.247,0.316 -0.151,0.495 0.094,0.178 0.315,0.246 0.493,0.15 0.178,-0.096 0.246,-0.315 0.151,-0.495"
           style="fill:#231f20;fill-opacity:1;fill-rule:nonzero;stroke:none"
           id="path2669" />
        <path
           d="m 196.0538,340.7303 c -0.166,-0.114 -0.394,-0.07 -0.507,0.097 -0.112,0.168 -0.068,0.394 0.099,0.507 0.168,0.114 0.394,0.07 0.507,-0.097 0.112,-0.168 0.068,-0.397 -0.099,-0.507"
           style="fill:#231f20;fill-opacity:1;fill-rule:nonzero;stroke:none"
           id="path2673" />
        <path
           d="m 197.5998,335.9655 c -0.199,-0.021 -0.38,0.124 -0.401,0.324 -0.021,0.201 0.125,0.382 0.326,0.403 0.199,0.019 0.379,-0.124 0.401,-0.326 0.021,-0.201 -0.125,-0.38 -0.326,-0.401"
           style="fill:#231f20;fill-opacity:1;fill-rule:nonzero;stroke:none"
           id="path2677" />
        <path
           d="m 196.7287,331.0336 c -0.187,0.077 -0.277,0.288 -0.202,0.476 0.076,0.186 0.288,0.277 0.476,0.202 0.186,-0.076 0.277,-0.289 0.202,-0.477 -0.076,-0.186 -0.289,-0.275 -0.476,-0.201"
           style="fill:#231f20;fill-opacity:1;fill-rule:nonzero;stroke:none"
           id="path2681" />
        <path
           d="m 193.6435,327.0891 c -0.129,0.154 -0.109,0.384 0.045,0.513 0.155,0.131 0.385,0.111 0.515,-0.043 0.129,-0.155 0.109,-0.386 -0.045,-0.516 -0.154,-0.129 -0.386,-0.108 -0.515,0.046"
           style="fill:#231f20;fill-opacity:1;fill-rule:nonzero;stroke:none"
           id="path2685" />
        <path
           d="m 182.7392,344.5527 c 0.096,-0.179 0.028,-0.399 -0.151,-0.495 -0.178,-0.094 -0.398,-0.027 -0.493,0.15 -0.094,0.18 -0.027,0.4 0.151,0.495 0.178,0.096 0.399,0.029 0.493,-0.15"
           style="fill:#231f20;fill-opacity:1;fill-rule:nonzero;stroke:none"
           id="path2689" />
        <path
           d="m 178.9022,341.3339 c 0.167,-0.112 0.211,-0.339 0.099,-0.507 -0.113,-0.167 -0.341,-0.211 -0.507,-0.097 -0.167,0.111 -0.211,0.339 -0.098,0.507 0.112,0.167 0.339,0.211 0.506,0.097"
           style="fill:#231f20;fill-opacity:1;fill-rule:nonzero;stroke:none"
           id="path2693" />
        <path
           d="m 177.0237,336.6921 c 0.201,-0.021 0.347,-0.201 0.326,-0.402 -0.021,-0.201 -0.201,-0.346 -0.401,-0.325 -0.201,0.022 -0.346,0.201 -0.326,0.402 0.022,0.201 0.202,0.345 0.401,0.325"
           style="fill:#231f20;fill-opacity:1;fill-rule:nonzero;stroke:none"
           id="path2697" />
        <path
           d="m 177.5461,331.7114 c 0.187,0.075 0.4,-0.016 0.476,-0.202 0.075,-0.188 -0.016,-0.399 -0.203,-0.476 -0.187,-0.074 -0.399,0.015 -0.475,0.201 -0.075,0.188 0.015,0.401 0.202,0.477"
           style="fill:#231f20;fill-opacity:1;fill-rule:nonzero;stroke:none"
           id="path2701" />
        <path
           d="m 180.3451,327.5589 c 0.13,0.154 0.36,0.174 0.514,0.043 0.154,-0.129 0.174,-0.358 0.046,-0.513 -0.13,-0.154 -0.361,-0.175 -0.516,-0.046 -0.154,0.13 -0.174,0.362 -0.044,0.516"
           style="fill:#231f20;fill-opacity:1;fill-rule:nonzero;stroke:none"
           id="path2705" />
      </g>
      <g
         id="g5033"
         inkscape:label="encoder 8">
        <path
           d="m 224.8187,335.2701 c 0,4.702 -3.813,8.518 -8.519,8.518 -4.705,0 -8.519,-3.816 -8.519,-8.518 0,-4.706 3.814,-8.52 8.519,-8.52 4.706,0 8.519,3.814 8.519,8.52 z"
           style="fill:none;stroke:#231f20;stroke-width:0.343;stroke-linecap:round;stroke-linejoin:round;stroke-miterlimit:10;stroke-dasharray:none;stroke-opacity:1"
           id="path1551" />
        <path
           d="m 216.665,345.5919 c 0,-0.203 -0.164,-0.365 -0.366,-0.365 -0.201,0 -0.364,0.162 -0.364,0.365 0,0.201 0.163,0.364 0.364,0.364 0.202,0 0.366,-0.163 0.366,-0.364"
           style="fill:#231f20;fill-opacity:1;fill-rule:nonzero;stroke:none"
           id="path2709" />
        <path
           d="m 221.4783,344.208 c -0.094,-0.178 -0.315,-0.244 -0.493,-0.15 -0.178,0.095 -0.247,0.316 -0.151,0.495 0.094,0.178 0.315,0.246 0.493,0.15 0.178,-0.096 0.247,-0.315 0.151,-0.495"
           style="fill:#231f20;fill-opacity:1;fill-rule:nonzero;stroke:none"
           id="path2713" />
        <path
           d="m 225.0805,340.7303 c -0.167,-0.114 -0.394,-0.07 -0.507,0.097 -0.114,0.168 -0.069,0.394 0.098,0.507 0.168,0.114 0.394,0.07 0.506,-0.097 0.114,-0.168 0.069,-0.397 -0.097,-0.507"
           style="fill:#231f20;fill-opacity:1;fill-rule:nonzero;stroke:none"
           id="path2717" />
        <path
           d="m 226.625,335.9655 c -0.199,-0.021 -0.379,0.124 -0.4,0.324 -0.021,0.201 0.124,0.382 0.325,0.403 0.2,0.019 0.38,-0.124 0.401,-0.326 0.021,-0.201 -0.124,-0.38 -0.326,-0.401"
           style="fill:#231f20;fill-opacity:1;fill-rule:nonzero;stroke:none"
           id="path2721" />
        <path
           d="m 225.7548,331.0336 c -0.188,0.077 -0.278,0.288 -0.202,0.476 0.076,0.186 0.287,0.277 0.475,0.202 0.186,-0.076 0.277,-0.289 0.202,-0.477 -0.076,-0.186 -0.289,-0.275 -0.475,-0.201"
           style="fill:#231f20;fill-opacity:1;fill-rule:nonzero;stroke:none"
           id="path2725" />
        <path
           d="m 222.6687,327.0891 c -0.129,0.154 -0.109,0.384 0.045,0.513 0.155,0.131 0.385,0.111 0.515,-0.043 0.129,-0.155 0.109,-0.386 -0.045,-0.516 -0.154,-0.129 -0.384,-0.108 -0.515,0.046"
           style="fill:#231f20;fill-opacity:1;fill-rule:nonzero;stroke:none"
           id="path2729" />
        <path
           d="m 211.7664,344.5527 c 0.094,-0.179 0.027,-0.399 -0.151,-0.495 -0.179,-0.094 -0.399,-0.027 -0.495,0.15 -0.094,0.18 -0.027,0.4 0.151,0.495 0.178,0.096 0.399,0.029 0.495,-0.15"
           style="fill:#231f20;fill-opacity:1;fill-rule:nonzero;stroke:none"
           id="path2733" />
        <path
           d="m 207.9274,341.3339 c 0.168,-0.112 0.211,-0.339 0.099,-0.507 -0.112,-0.167 -0.34,-0.211 -0.507,-0.097 -0.167,0.111 -0.211,0.339 -0.098,0.507 0.112,0.167 0.34,0.211 0.506,0.097"
           style="fill:#231f20;fill-opacity:1;fill-rule:nonzero;stroke:none"
           id="path2737" />
        <path
           d="m 206.0508,336.6921 c 0.2,-0.021 0.345,-0.201 0.324,-0.402 -0.021,-0.201 -0.2,-0.346 -0.401,-0.325 -0.201,0.022 -0.346,0.201 -0.325,0.402 0.021,0.201 0.201,0.345 0.402,0.325"
           style="fill:#231f20;fill-opacity:1;fill-rule:nonzero;stroke:none"
           id="path2741" />
        <path
           d="m 206.5723,331.7114 c 0.186,0.075 0.399,-0.016 0.475,-0.202 0.075,-0.188 -0.016,-0.399 -0.202,-0.476 -0.188,-0.074 -0.399,0.015 -0.476,0.201 -0.075,0.188 0.015,0.401 0.203,0.477"
           style="fill:#231f20;fill-opacity:1;fill-rule:nonzero;stroke:none"
           id="path2745" />
        <path
           d="m 209.3713,327.5589 c 0.129,0.154 0.359,0.174 0.513,0.043 0.155,-0.129 0.175,-0.358 0.046,-0.513 -0.13,-0.154 -0.359,-0.175 -0.515,-0.046 -0.155,0.13 -0.175,0.362 -0.044,0.516"
           style="fill:#231f20;fill-opacity:1;fill-rule:nonzero;stroke:none"
           id="path2749" />
      </g>
      <g
         id="g5009"
         inkscape:label="encoder 1">
        <path
           d="m 137.7417,363.2265 c 0,4.706 -3.813,8.52 -8.518,8.52 -4.706,0 -8.52,-3.814 -8.52,-8.52 0,-4.702 3.814,-8.518 8.52,-8.518 4.705,0 8.518,3.816 8.518,8.518 z"
           style="fill:none;stroke:#231f20;stroke-width:0.343;stroke-linecap:round;stroke-linejoin:round;stroke-miterlimit:10;stroke-dasharray:none;stroke-opacity:1"
           id="path1411" />
        <path
           d="m 129.5875,373.5843 c 0,-0.203 -0.163,-0.365 -0.364,-0.365 -0.203,0 -0.365,0.162 -0.365,0.365 0,0.201 0.162,0.364 0.365,0.364 0.201,0 0.364,-0.163 0.364,-0.364"
           style="fill:#231f20;fill-opacity:1;fill-rule:nonzero;stroke:none"
           id="path2753" />
        <path
           d="m 134.4026,372.2005 c -0.096,-0.178 -0.317,-0.246 -0.495,-0.15 -0.178,0.095 -0.245,0.316 -0.151,0.494 0.096,0.177 0.316,0.245 0.495,0.151 0.178,-0.096 0.245,-0.315 0.151,-0.495"
           style="fill:#231f20;fill-opacity:1;fill-rule:nonzero;stroke:none"
           id="path2757" />
        <path
           d="m 138.0034,368.7208 c -0.168,-0.114 -0.395,-0.068 -0.507,0.098 -0.112,0.167 -0.069,0.395 0.098,0.506 0.167,0.114 0.394,0.07 0.508,-0.097 0.112,-0.168 0.068,-0.395 -0.099,-0.507"
           style="fill:#231f20;fill-opacity:1;fill-rule:nonzero;stroke:none"
           id="path2761" />
        <path
           d="m 139.5493,363.9579 c -0.201,-0.023 -0.381,0.124 -0.401,0.323 -0.021,0.2 0.124,0.381 0.324,0.402 0.201,0.021 0.381,-0.124 0.402,-0.326 0.021,-0.2 -0.125,-0.378 -0.325,-0.399"
           style="fill:#231f20;fill-opacity:1;fill-rule:nonzero;stroke:none"
           id="path2765" />
        <path
           d="m 138.6772,359.0241 c -0.186,0.077 -0.277,0.288 -0.201,0.476 0.076,0.188 0.288,0.279 0.474,0.201 0.188,-0.073 0.278,-0.288 0.203,-0.474 -0.077,-0.186 -0.288,-0.277 -0.476,-0.203"
           style="fill:#231f20;fill-opacity:1;fill-rule:nonzero;stroke:none"
           id="path2769" />
        <path
           d="m 135.5932,355.0796 c -0.131,0.154 -0.111,0.386 0.044,0.513 0.156,0.131 0.385,0.111 0.515,-0.043 0.129,-0.155 0.109,-0.386 -0.046,-0.514 -0.154,-0.131 -0.384,-0.11 -0.513,0.044"
           style="fill:#231f20;fill-opacity:1;fill-rule:nonzero;stroke:none"
           id="path2773" />
        <path
           d="m 124.6888,372.5442 c 0.094,-0.178 0.027,-0.398 -0.151,-0.494 -0.178,-0.096 -0.399,-0.027 -0.493,0.15 -0.096,0.18 -0.028,0.4 0.151,0.495 0.178,0.094 0.399,0.027 0.493,-0.151"
           style="fill:#231f20;fill-opacity:1;fill-rule:nonzero;stroke:none"
           id="path2777" />
        <path
           d="m 120.8517,369.3243 c 0.166,-0.11 0.211,-0.339 0.097,-0.506 -0.112,-0.166 -0.339,-0.212 -0.506,-0.098 -0.167,0.113 -0.212,0.339 -0.098,0.507 0.113,0.167 0.339,0.211 0.507,0.097"
           style="fill:#231f20;fill-opacity:1;fill-rule:nonzero;stroke:none"
           id="path2781" />
        <path
           d="m 118.9733,364.6825 c 0.201,-0.021 0.346,-0.201 0.325,-0.401 -0.021,-0.2 -0.201,-0.347 -0.401,-0.324 -0.201,0.021 -0.346,0.2 -0.325,0.4 0.02,0.201 0.2,0.346 0.401,0.325"
           style="fill:#231f20;fill-opacity:1;fill-rule:nonzero;stroke:none"
           id="path2785" />
        <path
           d="m 119.4948,359.7009 c 0.187,0.078 0.399,-0.013 0.475,-0.201 0.075,-0.188 -0.015,-0.399 -0.202,-0.476 -0.186,-0.074 -0.398,0.017 -0.474,0.203 -0.075,0.186 0.015,0.401 0.201,0.474"
           style="fill:#231f20;fill-opacity:1;fill-rule:nonzero;stroke:none"
           id="path2789" />
        <path
           d="m 122.2937,355.5493 c 0.129,0.154 0.361,0.174 0.515,0.043 0.154,-0.127 0.174,-0.358 0.045,-0.513 -0.13,-0.154 -0.36,-0.175 -0.515,-0.044 -0.154,0.128 -0.174,0.36 -0.045,0.514"
           style="fill:#231f20;fill-opacity:1;fill-rule:nonzero;stroke:none"
           id="path2793" />
      </g>
      <g
         id="g4985"
         inkscape:label="encoder 2">
        <path
           d="m 166.7678,363.2382 c 0,4.704 -3.814,8.518 -8.519,8.518 -4.706,0 -8.52,-3.814 -8.52,-8.518 0,-4.704 3.814,-8.518 8.52,-8.518 4.705,0 8.519,3.814 8.519,8.518 z"
           style="fill:none;stroke:#231f20;stroke-width:0.343;stroke-linecap:round;stroke-linejoin:round;stroke-miterlimit:10;stroke-dasharray:none;stroke-opacity:1"
           id="path1431" />
        <path
           d="m 158.6137,373.5843 c 0,-0.203 -0.164,-0.365 -0.365,-0.365 -0.201,0 -0.365,0.162 -0.365,0.365 0,0.201 0.164,0.364 0.365,0.364 0.201,0 0.365,-0.163 0.365,-0.364"
           style="fill:#231f20;fill-opacity:1;fill-rule:nonzero;stroke:none"
           id="path2797" />
        <path
           d="m 163.4278,372.2005 c -0.096,-0.178 -0.315,-0.246 -0.495,-0.15 -0.178,0.095 -0.245,0.316 -0.151,0.494 0.096,0.177 0.317,0.245 0.495,0.151 0.178,-0.096 0.245,-0.315 0.151,-0.495"
           style="fill:#231f20;fill-opacity:1;fill-rule:nonzero;stroke:none"
           id="path2801" />
        <path
           d="m 167.0286,368.7208 c -0.167,-0.114 -0.394,-0.068 -0.507,0.098 -0.112,0.167 -0.068,0.395 0.099,0.506 0.166,0.114 0.394,0.07 0.507,-0.097 0.112,-0.168 0.068,-0.395 -0.099,-0.507"
           style="fill:#231f20;fill-opacity:1;fill-rule:nonzero;stroke:none"
           id="path2805" />
        <path
           d="m 168.5745,363.9579 c -0.201,-0.023 -0.38,0.124 -0.401,0.323 -0.021,0.2 0.125,0.381 0.325,0.402 0.2,0.021 0.38,-0.124 0.402,-0.326 0.02,-0.2 -0.125,-0.378 -0.326,-0.399"
           style="fill:#231f20;fill-opacity:1;fill-rule:nonzero;stroke:none"
           id="path2809" />
        <path
           d="m 167.7025,359.0241 c -0.186,0.077 -0.276,0.288 -0.201,0.476 0.076,0.188 0.288,0.279 0.474,0.201 0.188,-0.073 0.279,-0.288 0.204,-0.474 -0.076,-0.186 -0.289,-0.277 -0.477,-0.203"
           style="fill:#231f20;fill-opacity:1;fill-rule:nonzero;stroke:none"
           id="path2813" />
        <path
           d="m 164.6183,355.0796 c -0.129,0.154 -0.109,0.386 0.045,0.513 0.155,0.131 0.384,0.111 0.514,-0.043 0.13,-0.155 0.11,-0.386 -0.044,-0.514 -0.155,-0.131 -0.386,-0.11 -0.515,0.044"
           style="fill:#231f20;fill-opacity:1;fill-rule:nonzero;stroke:none"
           id="path2817" />
        <path
           d="m 153.7141,372.5442 c 0.096,-0.178 0.027,-0.398 -0.151,-0.494 -0.178,-0.096 -0.399,-0.027 -0.493,0.15 -0.096,0.18 -0.027,0.4 0.151,0.495 0.178,0.094 0.399,0.027 0.493,-0.151"
           style="fill:#231f20;fill-opacity:1;fill-rule:nonzero;stroke:none"
           id="path2821" />
        <path
           d="m 149.877,369.3243 c 0.167,-0.11 0.211,-0.339 0.099,-0.506 -0.114,-0.166 -0.341,-0.212 -0.508,-0.098 -0.166,0.113 -0.211,0.339 -0.097,0.507 0.112,0.167 0.338,0.211 0.506,0.097"
           style="fill:#231f20;fill-opacity:1;fill-rule:nonzero;stroke:none"
           id="path2825" />
        <path
           d="m 147.9984,364.6825 c 0.201,-0.021 0.346,-0.201 0.326,-0.401 -0.022,-0.2 -0.202,-0.347 -0.401,-0.324 -0.202,0.021 -0.347,0.2 -0.326,0.4 0.021,0.201 0.201,0.346 0.401,0.325"
           style="fill:#231f20;fill-opacity:1;fill-rule:nonzero;stroke:none"
           id="path2829" />
        <path
           d="m 148.52,359.7009 c 0.188,0.078 0.4,-0.013 0.477,-0.201 0.075,-0.188 -0.016,-0.399 -0.204,-0.476 -0.186,-0.074 -0.398,0.017 -0.474,0.203 -0.075,0.186 0.015,0.401 0.201,0.474"
           style="fill:#231f20;fill-opacity:1;fill-rule:nonzero;stroke:none"
           id="path2833" />
        <path
           d="m 151.3194,355.5493 c 0.13,0.154 0.36,0.174 0.515,0.043 0.154,-0.127 0.174,-0.358 0.045,-0.513 -0.13,-0.154 -0.361,-0.175 -0.515,-0.044 -0.154,0.128 -0.174,0.36 -0.045,0.514"
           style="fill:#231f20;fill-opacity:1;fill-rule:nonzero;stroke:none"
           id="path2837" />
      </g>
      <g
         id="g4961"
         inkscape:label="encoder 3">
        <path
           d="m 195.7935,363.2499 c 0,4.704 -3.814,8.518 -8.519,8.518 -4.705,0 -8.52,-3.814 -8.52,-8.518 0,-4.705 3.815,-8.519 8.52,-8.519 4.705,0 8.519,3.814 8.519,8.519 z"
           style="fill:none;stroke:#231f20;stroke-width:0.343;stroke-linecap:round;stroke-linejoin:round;stroke-miterlimit:10;stroke-dasharray:none;stroke-opacity:1"
           id="path1451" />
        <path
           d="m 187.6399,373.5843 c 0,-0.203 -0.165,-0.365 -0.366,-0.365 -0.201,0 -0.365,0.162 -0.365,0.365 0,0.201 0.164,0.364 0.365,0.364 0.201,0 0.366,-0.163 0.366,-0.364"
           style="fill:#231f20;fill-opacity:1;fill-rule:nonzero;stroke:none"
           id="path2841" />
        <path
           d="m 192.4531,372.2005 c -0.094,-0.178 -0.315,-0.246 -0.493,-0.15 -0.179,0.095 -0.247,0.316 -0.151,0.494 0.094,0.177 0.315,0.245 0.493,0.151 0.178,-0.096 0.246,-0.315 0.151,-0.495"
           style="fill:#231f20;fill-opacity:1;fill-rule:nonzero;stroke:none"
           id="path2845" />
        <path
           d="m 196.0538,368.7208 c -0.166,-0.114 -0.394,-0.068 -0.507,0.098 -0.112,0.167 -0.068,0.395 0.099,0.506 0.168,0.114 0.394,0.07 0.507,-0.097 0.112,-0.168 0.068,-0.395 -0.099,-0.507"
           style="fill:#231f20;fill-opacity:1;fill-rule:nonzero;stroke:none"
           id="path2849" />
        <path
           d="m 197.5998,363.9579 c -0.199,-0.023 -0.38,0.124 -0.401,0.323 -0.021,0.2 0.125,0.381 0.326,0.402 0.199,0.021 0.379,-0.124 0.401,-0.326 0.021,-0.2 -0.125,-0.378 -0.326,-0.399"
           style="fill:#231f20;fill-opacity:1;fill-rule:nonzero;stroke:none"
           id="path2853" />
        <path
           d="m 196.7287,359.0241 c -0.187,0.077 -0.277,0.288 -0.202,0.476 0.076,0.188 0.288,0.279 0.476,0.201 0.186,-0.073 0.277,-0.288 0.202,-0.474 -0.076,-0.186 -0.289,-0.277 -0.476,-0.203"
           style="fill:#231f20;fill-opacity:1;fill-rule:nonzero;stroke:none"
           id="path2857" />
        <path
           d="m 193.6435,355.0796 c -0.129,0.154 -0.109,0.386 0.045,0.513 0.155,0.131 0.385,0.111 0.515,-0.043 0.129,-0.155 0.109,-0.386 -0.045,-0.514 -0.154,-0.131 -0.386,-0.11 -0.515,0.044"
           style="fill:#231f20;fill-opacity:1;fill-rule:nonzero;stroke:none"
           id="path2861" />
        <path
           d="m 182.7392,372.5442 c 0.096,-0.178 0.028,-0.398 -0.151,-0.494 -0.178,-0.096 -0.398,-0.027 -0.493,0.15 -0.094,0.18 -0.027,0.4 0.151,0.495 0.178,0.094 0.399,0.027 0.493,-0.151"
           style="fill:#231f20;fill-opacity:1;fill-rule:nonzero;stroke:none"
           id="path2865" />
        <path
           d="m 178.9022,369.3243 c 0.167,-0.11 0.211,-0.339 0.099,-0.506 -0.113,-0.166 -0.341,-0.212 -0.507,-0.098 -0.167,0.113 -0.211,0.339 -0.098,0.507 0.112,0.167 0.339,0.211 0.506,0.097"
           style="fill:#231f20;fill-opacity:1;fill-rule:nonzero;stroke:none"
           id="path2869" />
        <path
           d="m 177.0237,364.6825 c 0.201,-0.021 0.347,-0.201 0.326,-0.401 -0.021,-0.2 -0.201,-0.347 -0.401,-0.324 -0.201,0.021 -0.346,0.2 -0.326,0.4 0.022,0.201 0.202,0.346 0.401,0.325"
           style="fill:#231f20;fill-opacity:1;fill-rule:nonzero;stroke:none"
           id="path2873" />
        <path
           d="m 177.5461,359.7009 c 0.187,0.078 0.4,-0.013 0.476,-0.201 0.075,-0.188 -0.016,-0.399 -0.203,-0.476 -0.187,-0.074 -0.399,0.017 -0.475,0.203 -0.075,0.186 0.015,0.401 0.202,0.474"
           style="fill:#231f20;fill-opacity:1;fill-rule:nonzero;stroke:none"
           id="path2877" />
        <path
           d="m 180.3451,355.5493 c 0.13,0.154 0.36,0.174 0.514,0.043 0.154,-0.127 0.174,-0.358 0.046,-0.513 -0.13,-0.154 -0.361,-0.175 -0.516,-0.044 -0.154,0.128 -0.174,0.36 -0.044,0.514"
           style="fill:#231f20;fill-opacity:1;fill-rule:nonzero;stroke:none"
           id="path2881" />
      </g>
      <g
         id="g4937"
         inkscape:label="encoder 4">
        <path
           d="m 224.8187,363.2606 c 0,4.703 -3.813,8.519 -8.519,8.519 -4.705,0 -8.519,-3.816 -8.519,-8.519 0,-4.706 3.814,-8.52 8.519,-8.52 4.706,0 8.519,3.814 8.519,8.52 z"
           style="fill:none;stroke:#231f20;stroke-width:0.343;stroke-linecap:round;stroke-linejoin:round;stroke-miterlimit:10;stroke-dasharray:none;stroke-opacity:1"
           id="path1471" />
        <path
           d="m 216.665,373.5843 c 0,-0.203 -0.164,-0.365 -0.366,-0.365 -0.201,0 -0.364,0.162 -0.364,0.365 0,0.201 0.163,0.364 0.364,0.364 0.202,0 0.366,-0.163 0.366,-0.364"
           style="fill:#231f20;fill-opacity:1;fill-rule:nonzero;stroke:none"
           id="path2885" />
        <path
           d="m 221.4783,372.2005 c -0.094,-0.178 -0.315,-0.246 -0.493,-0.15 -0.178,0.095 -0.247,0.316 -0.151,0.494 0.094,0.177 0.315,0.245 0.493,0.151 0.178,-0.096 0.247,-0.315 0.151,-0.495"
           style="fill:#231f20;fill-opacity:1;fill-rule:nonzero;stroke:none"
           id="path2889" />
        <path
           d="m 225.0805,368.7208 c -0.167,-0.114 -0.394,-0.068 -0.507,0.098 -0.114,0.167 -0.069,0.395 0.098,0.506 0.168,0.114 0.394,0.07 0.506,-0.097 0.114,-0.168 0.069,-0.395 -0.097,-0.507"
           style="fill:#231f20;fill-opacity:1;fill-rule:nonzero;stroke:none"
           id="path2893" />
        <path
           d="m 226.625,363.9579 c -0.199,-0.023 -0.379,0.124 -0.4,0.323 -0.021,0.2 0.124,0.381 0.325,0.402 0.2,0.021 0.38,-0.124 0.401,-0.326 0.021,-0.2 -0.124,-0.378 -0.326,-0.399"
           style="fill:#231f20;fill-opacity:1;fill-rule:nonzero;stroke:none"
           id="path2897" />
        <path
           d="m 225.7548,359.0241 c -0.188,0.077 -0.278,0.288 -0.202,0.476 0.076,0.188 0.287,0.279 0.475,0.201 0.186,-0.073 0.277,-0.288 0.202,-0.474 -0.076,-0.186 -0.289,-0.277 -0.475,-0.203"
           style="fill:#231f20;fill-opacity:1;fill-rule:nonzero;stroke:none"
           id="path2901" />
        <path
           d="m 222.6687,355.0796 c -0.129,0.154 -0.109,0.386 0.045,0.513 0.155,0.131 0.385,0.111 0.515,-0.043 0.129,-0.155 0.109,-0.386 -0.045,-0.514 -0.154,-0.131 -0.384,-0.11 -0.515,0.044"
           style="fill:#231f20;fill-opacity:1;fill-rule:nonzero;stroke:none"
           id="path2905" />
        <path
           d="m 211.7664,372.5442 c 0.094,-0.178 0.027,-0.398 -0.151,-0.494 -0.179,-0.096 -0.399,-0.027 -0.495,0.15 -0.094,0.18 -0.027,0.4 0.151,0.495 0.178,0.094 0.399,0.027 0.495,-0.151"
           style="fill:#231f20;fill-opacity:1;fill-rule:nonzero;stroke:none"
           id="path2909" />
        <path
           d="m 207.9274,369.3243 c 0.168,-0.11 0.211,-0.339 0.099,-0.506 -0.112,-0.166 -0.34,-0.212 -0.507,-0.098 -0.167,0.113 -0.211,0.339 -0.098,0.507 0.112,0.167 0.34,0.211 0.506,0.097"
           style="fill:#231f20;fill-opacity:1;fill-rule:nonzero;stroke:none"
           id="path2913" />
        <path
           d="m 206.0508,364.6825 c 0.2,-0.021 0.345,-0.201 0.324,-0.401 -0.021,-0.2 -0.2,-0.347 -0.401,-0.324 -0.201,0.021 -0.346,0.2 -0.325,0.4 0.021,0.201 0.201,0.346 0.402,0.325"
           style="fill:#231f20;fill-opacity:1;fill-rule:nonzero;stroke:none"
           id="path2917" />
        <path
           d="m 206.5723,359.7009 c 0.186,0.078 0.399,-0.013 0.475,-0.201 0.075,-0.188 -0.016,-0.399 -0.202,-0.476 -0.188,-0.074 -0.399,0.017 -0.476,0.203 -0.075,0.186 0.015,0.401 0.203,0.474"
           style="fill:#231f20;fill-opacity:1;fill-rule:nonzero;stroke:none"
           id="path2921" />
        <path
           d="m 209.3713,355.5493 c 0.129,0.154 0.359,0.174 0.513,0.043 0.155,-0.127 0.175,-0.358 0.046,-0.513 -0.13,-0.154 -0.359,-0.175 -0.515,-0.044 -0.155,0.128 -0.175,0.36 -0.044,0.514"
           style="fill:#231f20;fill-opacity:1;fill-rule:nonzero;stroke:none"
           id="path2925" />
      </g>
    </g>
  </g>
</svg>
